<svg xmlns="http://www.w3.org/2000/svg" viewBox="0 0 631.4 549"><defs><style>.cls-1{fill:#039be5;}.cls-2{fill:#3f3d56;}.cls-3{fill:#f2f2f2;}.cls-4{fill:#ccc;}.cls-5{fill:#a0616a;}.cls-6{fill:#2f2e41;}.cls-7{opacity:0.05;isolation:isolate;}</style></defs><g id="Слой_2" data-name="Слой 2"><g id="ba852881-1fdd-4058-baca-f1caa98e12dd"><path class="cls-1" d="M0,226.55C0,159.38,54.45,0,121.61,0S243.23,159.38,243.23,226.55A121.62,121.62,0,0,1,0,226.55Z"/><path class="cls-2" d="M121.61,522.42a1,1,0,0,1-1-1V102.13a1,1,0,0,1,2,0V521.42A1,1,0,0,1,121.61,522.42Z"/><path class="cls-2" d="M121.61,183.08a1,1,0,0,1-.7-.29L72.77,134.65a1,1,0,1,1,1.41-1.42h0l48.13,48.13a1,1,0,0,1,0,1.42,1,1,0,0,1-.71.29Z"/><path class="cls-2" d="M121.61,266.41a1,1,0,0,1-.7-1.71l80.61-80.61a1,1,0,1,1,1.42,1.41h0l-80.61,80.61A1,1,0,0,1,121.61,266.41Z"/><path class="cls-3" d="M49.27,548.61c.17.14.35.26.53.39H198.89c2.92-11.84,4-23.69-.41-34-6.22-14.66-24.62-23.81-39.24-17.51a22.32,22.32,0,0,0-8.78,6.94c-5.72-10.24-16-17.95-27.81-17.94-14.83,0-27.16,12.13-31.18,26.14C85,501.72,72.19,494.07,59.68,497.36,38.76,502.86,32.15,535.38,49.27,548.61Z"/><path class="cls-4" d="M422.51,345.69c7.38,14.6-.33,35.17-16.45,39.78-4.53,1.3-9.67,1.17-13.66-1.57-3.3-2.26-5.67-6.26-5.36-10.33.6-7.83,10.57-10.74,16.92-8.21,8.6,3.42,12.44,13.51,13.65,22,1.47,10.35-.55,21-4.6,30.61-8.09,19.14-24.12,34.05-40,46.85a252.88,252.88,0,0,1-53.18,32.88q-3.58,1.65-7.21,3.18a1.49,1.49,0,0,0-.54,2,1.53,1.53,0,0,0,2.05.54A256.15,256.15,0,0,0,372.56,469c17.29-13.57,34.74-29.59,43.37-50.27,4.29-10.31,6.23-21.7,4.47-32.8-1.48-9.34-6.12-19.67-15.5-23.37-7.39-2.91-17.7.16-20.33,8.19-1.44,4.42.05,9.2,2.91,12.69a16.69,16.69,0,0,0,12.7,5.87c9.65.2,18.47-6,23.32-14a33.31,33.31,0,0,0,3.86-25.14,30,30,0,0,0-2.26-5.94c-.87-1.72-3.46-.2-2.59,1.52Z"/><polygon class="cls-5" points="588.62 527.31 577.84 531.11 558.03 491.34 573.95 485.73 588.62 527.31"/><path class="cls-6" d="M569.05,530.75l20.8-7.34h0l4.62,13.09h0l-33.89,12h0a13.89,13.89,0,0,1,8.47-17.71Z"/><polygon class="cls-5" points="471.56 537.83 460.13 537.83 454.69 493.74 471.57 493.74 471.56 537.83"/><path class="cls-6" d="M452,534.57H474v13.88H438.08A13.88,13.88,0,0,1,452,534.57Z"/><path class="cls-6" d="M470.5,524.88a4.3,4.3,0,0,1-1.12-.14l-16.86-4.27a4.5,4.5,0,0,1-3.38-4.71l16.12-210.25.49,0-.49,0a18,18,0,0,1,17-16.61l51-2.64L541.8,418.2l50.82,91.52a4.51,4.51,0,0,1-1.75,6.12,4.43,4.43,0,0,1-.67.3l-23.4,8.4a4.48,4.48,0,0,1-5.61-2.35L501.43,392.78a1.5,1.5,0,0,0-2-.73,1.47,1.47,0,0,0-.84,1.08L474.92,521.2A4.51,4.51,0,0,1,470.5,524.88Z"/><path class="cls-5" d="M414.59,338.2a9.38,9.38,0,0,1,12.32-4.91,9.77,9.77,0,0,1,1.46.79l17.75-12,9.93,9-25.31,16.59a9.43,9.43,0,0,1-16.15-9.48Z"/><circle class="cls-5" cx="511.12" cy="181.6" r="24.56" transform="translate(249.99 657.02) rotate(-80.78)"/><path class="cls-1" d="M477.7,294.45a9.33,9.33,0,0,1-9.31-9.34,8.82,8.82,0,0,1,.16-1.7l4.29-22.91c-4.58-16.62,18.73-31.27,19.73-31.88L507.11,223l.18.47-.18-.47a17.72,17.72,0,0,1,24,17.17l-1.77,50.39-51,3.82Z"/><path class="cls-2" d="M499,451.58a248.23,248.23,0,0,1-33.46-2.68l-.46-.07,0-.47c.89-8.61,21.65-211,26.15-225.23,1.16-3.68,4.77-6.58,10.73-8.61,18.74-6.36,39.79,3.08,47.92,21.51a51.09,51.09,0,0,1,4.31,21.6l-3.78,178.13-.4.08c-.1,0-10.57,2.06-24.39,11C520,450.47,509.59,451.58,499,451.58Z"/><path class="cls-7" d="M527,257.72c13,22,6.44,33.8-5.85,56.31-6.82,12.48-27.85,27.92-37.71,18s-2.06-23.42,2.22-37.12,13.48-25,23.08-35.19C515.6,252.46,529.75,258.42,527,257.72Z"/><path class="cls-2" d="M442.53,344a4.5,4.5,0,0,1-4.35-3.34L435.07,329a4.51,4.51,0,0,1,1.72-4.82l50.49-36.12,6.8-38.65a19.1,19.1,0,0,1,37.62,6.63,18.58,18.58,0,0,1-.88,3.27l-14.38,39.13A31.64,31.64,0,0,1,500.6,316l-56.09,27.53A4.5,4.5,0,0,1,442.53,344Z"/><path class="cls-6" d="M500.75,172.27a11,11,0,0,1-20.64-7.12,24.54,24.54,0,0,1,45.52-6.69c7.77-5.44,20-2.69,24.67,5.55s.83,20.14-7.81,24.05c-4.29,1.95-4,9.47.47,11.05a7.6,7.6,0,0,1-.07,14.34c-5.6,1.91-11.31,3.85-17.22,4s-12.18-1.77-15.91-6.36-4-12.12.41-16.07A14.11,14.11,0,0,0,513,178.27C510.09,172.91,502.23,169.25,500.75,172.27Z"/><path class="cls-1" d="M342.12,543.67a6.5,6.5,0,0,1-5.6-9.78h0l9.1-15.54,11.22,6.57-9.1,15.54A6.52,6.52,0,0,1,342.12,543.67Z"/><circle class="cls-1" cx="372.75" cy="503.63" r="8"/><path class="cls-1" d="M306.92,543.67a6.5,6.5,0,0,1-5.6-9.78l9.1-15.54,11.22,6.57-9.1,15.54A6.52,6.52,0,0,1,306.92,543.67Z"/><path class="cls-2" d="M359.3,533.29H319A20.71,20.71,0,0,1,298.3,512.6v-6.13a7.19,7.19,0,0,1,7.18-7.18H359.3a17,17,0,1,1,0,34Z"/><path class="cls-2" d="M357.39,549a6.5,6.5,0,0,1-6.5-6.5v-18h13v18A6.51,6.51,0,0,1,357.39,549Z"/><path class="cls-2" d="M319.67,549a6.5,6.5,0,0,1-6.5-6.5v-18h13v18A6.51,6.51,0,0,1,319.67,549Z"/><path class="cls-1" d="M310.67,474.92h-16v-21a8,8,0,0,1,16,0Z"/><path class="cls-2" d="M309.4,504.67H282.93a5.76,5.76,0,0,1-5.76-5.77V485a18.39,18.39,0,0,1,18.37-18.37h4.22a15.43,15.43,0,0,1,15.41,15.41V498.9A5.78,5.78,0,0,1,309.4,504.67Z"/><path class="cls-2" d="M310.67,474.92h-11v-23.5a5.5,5.5,0,0,1,11,0Z"/><path class="cls-2" d="M307.92,504.5h-29a8,8,0,0,1,0-16h29Z"/><ellipse class="cls-1" cx="272.5" cy="496.16" rx="1.88" ry="3.38"/><path class="cls-2" d="M630.4,549h-381a1,1,0,1,1,0-2h381a1,1,0,1,1,0,2Z"/></g></g></svg>