<svg xmlns="http://www.w3.org/2000/svg" xmlns:xlink="http://www.w3.org/1999/xlink" viewBox="0 0 387.72 353.01"><defs><style>.cls-1,.cls-21,.cls-9{fill:none;}.cls-12,.cls-2{fill:#039be5;}.cls-11,.cls-22,.cls-3,.cls-4,.cls-5,.cls-8{fill:#fff;}.cls-3{opacity:0.8;}.cls-10,.cls-15,.cls-3,.cls-5,.cls-8{isolation:isolate;}.cls-5,.cls-7{opacity:0.5;}.cls-6{fill:#92e3a9;}.cls-8{opacity:0.4;}.cls-11,.cls-12,.cls-13,.cls-22,.cls-9{stroke:#263238;}.cls-11,.cls-12,.cls-13,.cls-21,.cls-22,.cls-9{stroke-linecap:round;stroke-linejoin:round;}.cls-10{opacity:0.3;}.cls-13,.cls-20{fill:#263238;}.cls-14{clip-path:url(#clip-path);}.cls-15,.cls-18{opacity:0.2;}.cls-16{clip-path:url(#clip-path-2);}.cls-17{clip-path:url(#clip-path-3);}.cls-19{clip-path:url(#clip-path-4);}.cls-21{stroke:#fff;}</style><clipPath id="clip-path"><path class="cls-1" d="M195.34,143a4.74,4.74,0,0,1,3.59,2.6,19.29,19.29,0,0,1,1.6,4.79l-1-.8,1.2,3.8a61.57,61.57,0,0,0,11.18-8c4.6-4.4,7.39-5.2,9.79-5.2s17.38,1,19.18.8,5.79-2.4,6.39.2-2.2,4.63-5.61,6.63-10,.8-12,.6a17.8,17.8,0,0,0-4.19.2s-8.59,6.19-13.59,13.38-10.58,13.59-14.58,12.59-8.19-6.19-8.79-6.19-5.39.2-7.19-3.4a26.84,26.84,0,0,1-2.19-5.39"/></clipPath><clipPath id="clip-path-2"><path class="cls-1" d="M142.14,248.45a73.09,73.09,0,0,0,5,7.79,58.68,58.68,0,0,0,7.19,8s-3.59,5.79-6.79,10.58-4.19,5.4-2,6.79,7.2,9.19,9.39,11.19,8.39,2.2,8.39,2.2,4-.8,3.2-2.8a4.5,4.5,0,0,0-4-2.6c-1,0-3.59-.2-4.39-.79s-5-5.2-5.59-6.6,5.39-6.39,8.78-11.78,6.4-5.79,3.8-13.78S143.74,243.05,142.14,248.45Z"/></clipPath><clipPath id="clip-path-3"><path class="cls-1" d="M154.38,146s-1.79,4.79-.6,7.39,2.8,5,3.2,8-1.8,23.17-3,33.36-7.19,20.57-11.38,25-5.19,5.4-5.19,5.4-11.59,3-16.78,8.19-7.19,8.59-12,10a15.26,15.26,0,0,1-14-3.59,58.68,58.68,0,0,1-4.24-4.68c-.37-.46-.55-.71-.55-.71v2.23s-6.6-5.23-6.6-4a34.63,34.63,0,0,0,.59,4.19s-3.19-3.59-3.19-2-.2,9,0,9.58-1.4-.4-1.4,1,1,5.79,4.79,10.39,16.22,11,27.63,7.7,12.18-17.18,14.58-22.17,10.42-6.79,10.42-6.79,1.2,11.78,6.79,17,16,9.59,18.57,13.59-.79,11.58-1.39,12.58-5.6,5.79-4,7.79,11.59,11.19,15,13.38,8.19,2.4,9.39,2.8,11.78.2,11.78-2.4-2.39-3.79-6.59-4.79-8.19,1.6-9.78.6-8.79-7-9.39-9,.8-9,5-12.58,15-9.19,13.58-24.17-6.39-22.38-6.39-22.38,7-14,16-22,11-19.37,11-19.37l1,2.2.8-6.8,1.19,1.2.4-3.39s2.6-14.78.2-24.57-6.19-13-6.19-13l2.2.59L201,139l.6-.8s-3.39-2.4-5-2.6-6.79-1.6-6.79-1.6,2.79-.59,2.2-.59-6.2-1.4-6.2-1.4l-2.39-.2s-4.6.6-11.79,5.19A151.57,151.57,0,0,1,154.38,146Z"/></clipPath><clipPath id="clip-path-4"><path class="cls-1" d="M175.76,95.84s-4.6,4.6-8.59,5.4-15,.6-19.18,9.38-1.4,24.17,1.4,28.37,2,7,3.4,7.79,14.58-4,22.17-8.79,9.78-4.79,10-7.59-2-4.4-3.59-5.79-2.8-2.6-2-3,6-2.2,7.19-3.79-.2-5.4-2-5-9,2.6-9,2.6,8.79-3.8,10.38-9.59a11.84,11.84,0,0,0-2.79-11.78C181.15,91.85,177.35,93.85,175.76,95.84Z"/></clipPath></defs><g id="Слой_2" data-name="Слой 2"><g id="Слой_1-2" data-name="Слой 1"><g id="freepik--background-simple--inject-127"><path class="cls-2" d="M375.18,235.78c13.94-62.6-14.91-148.1-50-184.54C261.76-14.54,202.73-5.28,155.52,14.89S94.47,109.35,60.05,141.6s-77.14,83.18-34.52,130.62,103.46,20,153,19.56S291.15,317,328.45,299.13C354.49,286.63,369,263.43,375.18,235.78Z"/><path class="cls-3" d="M375.41,235.78c13.94-62.6-14.91-148.1-50-184.54C262-14.54,203-5.28,155.75,14.89s-61,94.46-95.47,126.71-77.14,83.18-34.52,130.62,103.46,20,153,19.56S291.38,317,328.68,299.13C354.72,286.63,369.24,263.43,375.41,235.78Z"/><path class="cls-4" d="M359.93,196.93c1.62,1,5.84,1.45,5.84,1.45s-.53-2.87-.59-3c-.67-2.05-3.16-5.63-5.58-5.62a2.84,2.84,0,0,0-2.77,2.91,2,2,0,0,0,0,.34C357,194.65,358.55,196.1,359.93,196.93Z"/><path class="cls-4" d="M380.76,235.6c-2.4.3-4.41,4.17-4.8,6.29,0,.13-.13,1.52-.18,2.39,0-.52-.09-1-.15-1.56-.1-1.05-.24-2.1-.38-3.23l-.27-1.65c-.08-.55-.23-1.13-.34-1.7-.3-1.31-.65-2.63-1.05-3.94.93-.1,4.21-.48,5.61-1.29s3-2.22,3.17-3.91a2.86,2.86,0,0,0-2.37-3.28l-.31,0c-2.41-.06-5,3.46-5.7,5.5,0,.12-.39,1.64-.56,2.48-.24-.79-.48-1.58-.75-2.37-.78-2.29-1.64-4.58-2.48-6.86-.26-.71-.51-1.41-.77-2.11.33,0,4.24-.4,5.81-1.31,1.4-.8,3-2.21,3.17-3.9a2.86,2.86,0,0,0-2.37-3.28l-.31,0c-2.41-.06-5,3.46-5.7,5.49,0,.16-.54,2.34-.64,2.91-.56-1.55-1.1-3.09-1.57-4.64a49.36,49.36,0,0,1-1.54-6.35c.16,0,4.24-.38,5.85-1.31,1.39-.8,2.95-2.21,3.16-3.91a2.86,2.86,0,0,0-2.37-3.28l-.3,0c-2.42-.06-5,3.46-5.7,5.5-.05.13-.43,1.8-.59,2.6h-.14a36,36,0,0,1-.36-6.56,32.45,32.45,0,0,1,.23-3.48c.76,0,4.27,0,5.81-.66s3.18-1.88,3.58-3.54a2.85,2.85,0,0,0-2-3.51l-.3-.07c-2.39-.33-5.34,2.89-6.27,4.84-.05.1-.44,1.23-.72,2.06.06-.5.11-1,.18-1.5.24-1.82.58-3.46.89-4.91.18-.83.36-1.57.54-2.26.76-.39,3.79-2,4.83-3.26s1.95-3.13,1.54-4.78a2.87,2.87,0,0,0-3.39-2.21l-.3.08c-2.27.82-3.4,5-3.33,7.19,0,.18.43,3.09.47,3.07h.05c-.18.67-.37,1.38-.56,2.16-.35,1.45-.72,3.09-1,4.91a50.76,50.76,0,0,0-.65,5.89,37.68,37.68,0,0,0,.23,6.63V209c-.3-.64-1.19-2.41-1.27-2.54-1.19-1.8-4.54-4.59-6.87-3.95a2.87,2.87,0,0,0-1.89,3.59c0,.09.06.18.1.27.62,1.59,2.47,2.59,4,3,1.75.49,5.65-.09,6-.14a51,51,0,0,0,1.43,6.6c.36,1.26.76,2.53,1.17,3.79-.27-.55-.52-1-.56-1.1-1.19-1.81-4.54-4.6-6.87-4a2.87,2.87,0,0,0-1.89,3.59c0,.09.06.18.1.27.62,1.6,2.47,2.59,4,3s4.91,0,5.79-.11c.16.48.32,1,.49,1.44.8,2.31,1.6,4.61,2.32,6.89.26.8.48,1.61.71,2.41-.25-.49-.46-.9-.5-1-1.18-1.8-4.53-4.59-6.86-4a2.88,2.88,0,0,0-1.79,3.86c.61,1.59,2.47,2.59,4,3s4.58,0,5.62-.1c.21.83.42,1.66.58,2.47.09.55.23,1.08.29,1.65l.24,1.65c.11,1.06.23,2.14.31,3.18.06.72.1,1.4.15,2.09-.24-.8-.76-2.36-.81-2.49a11.29,11.29,0,0,0-3.7-4.21,4.29,4.29,0,0,0-.31-.55,2.86,2.86,0,0,0-4-.83,2.07,2.07,0,0,0-.24.17c-1.83,1.58-1.37,5.92-.53,7.91.05.11.73,1.32,1.17,2.08-.33-.4-.64-.8-1-1.22-.67-.82-1.37-1.62-2.11-2.48L361.83,242c-.37-.42-.81-.81-1.22-1.22-1-.94-2-1.84-3.05-2.72.72-.59,3.24-2.72,4-4.17s1.24-3.48.48-5a2.85,2.85,0,0,0-3.78-1.39l-.22.11c-2.05,1.28-2.26,5.64-1.73,7.73,0,.13.59,1.59.9,2.38-.63-.52-1.27-1-1.93-1.56-1.91-1.48-3.89-2.92-5.86-4.36l-1.79-1.33c.25-.21,3.31-2.67,4.12-4.3.72-1.44,1.24-3.47.48-5a2.87,2.87,0,0,0-3.79-1.43l-.26.14c-2.05,1.29-2.26,5.64-1.73,7.73.05.16.84,2.26,1.07,2.78-1.32-1-2.62-2-3.87-3a49.08,49.08,0,0,1-4.78-4.45c.12-.09,3.32-2.66,4.15-4.32.72-1.44,1.24-3.47.49-5a2.87,2.87,0,0,0-3.8-1.42l-.26.13c-2.05,1.29-2.25,5.64-1.72,7.73,0,.14.63,1.74.94,2.49l-.12.07a36,36,0,0,1-3.92-5.27c-.65-1-1.21-2-1.73-3,.64-.41,3.57-2.34,4.48-3.76s1.62-3.32,1-4.92a2.89,2.89,0,0,0-3.63-1.83l-.27.11c-2.17,1-2.85,5.35-2.56,7.49,0,.12.31,1.28.54,2.12-.23-.45-.47-.91-.68-1.35-.8-1.65-1.42-3.2-2-4.59-.3-.78-.56-1.5-.79-2.18.42-.74,2.07-3.73,2.23-5.38s-.1-3.69-1.36-4.84a2.85,2.85,0,0,0-4,0,2.25,2.25,0,0,0-.21.24c-1.45,1.94-.07,6.07,1.18,7.83.11.15,2.07,2.34,2.09,2.3h0c.22.65.45,1.35.73,2.11.51,1.4,1.1,3,1.87,4.64a49.42,49.42,0,0,0,2.71,5.27A37.21,37.21,0,0,0,338,223l.06.06c-.6-.37-2.32-1.35-2.47-1.41-2-.86-6.31-1.34-7.9.49a2.85,2.85,0,0,0,.38,4l.26.19c1.39,1,3.48.8,5,.31,1.73-.55,4.66-3.19,4.89-3.4A50,50,0,0,0,343.1,228c1,.86,2,1.69,3.06,2.51l-1.08-.6c-2-.85-6.31-1.33-7.9.49a2.86,2.86,0,0,0,.38,4l.25.18c1.4,1,3.49.79,5,.3s4.1-2.69,4.77-3.28l1.2.93c1.94,1.49,3.89,3,5.75,4.46.65.53,1.28,1.08,1.91,1.62l-.94-.52c-2-.85-6.32-1.33-7.9.49a2.86,2.86,0,0,0,.38,4l.25.18c1.39,1,3.48.79,5,.31s3.85-2.49,4.64-3.19c.63.58,1.26,1.16,1.84,1.74.39.41.79.78,1.16,1.21l1.1,1.25c.68.82,1.38,1.67,2,2.48l1.28,1.67c-.65-.54-1.94-1.56-2.05-1.63-1.83-1.15-6-2.28-7.89-.72a2.86,2.86,0,0,0-.21,4.05,2.08,2.08,0,0,0,.21.21c1.23,1.19,3.32,1.31,4.92,1.06s4.92-2.34,5.32-2.6l2,2.66c2.14,2.95,3.8,5.49,4.94,7.28l.12.18,1.48-.71c-.08-.12-.15-.23-.24-.35-1.19-1.79-2.93-4.32-5.15-7.25-.7-.93-1.46-1.91-2.26-2.91a31.24,31.24,0,0,0,2.29-2.84,20.59,20.59,0,0,0,5.69.69c.08,1.15.14,2.26.18,3.31.16,3.64.14,6.68.11,8.8v.25l1.63-.79c0-2.11-.08-5-.3-8.34-.07-1.16-.17-2.4-.28-3.67.45-.11,4.13-1,5.51-2.16s2.59-2.64,2.54-4.35a2.86,2.86,0,0,0-2.88-2.82Z"/><path class="cls-4" d="M330.25,212c-1.68-1.34-5.73-2.95-7.75-1.61a2.85,2.85,0,0,0-.7,4,2.43,2.43,0,0,0,.2.25c1.08,1.32,3.15,1.69,4.76,1.62,1.9-.07,5.67-2,5.67-2S330.4,212.16,330.25,212Z"/><path class="cls-4" d="M55.08,212.17c0,.05,2.19-2.69,2.31-2.87,1.34-2.18,2.67-7.18.81-9.37a3.41,3.41,0,0,0-4.8-.25,3,3,0,0,0-.25.25c-1.4,1.47-1.54,4-1.24,5.84C52.26,208,55.08,212.17,55.08,212.17Z"/><path class="cls-4" d="M76.2,201.56c-2.48-1.43-7.16.77-9.06,2.49-.17.15-2.47,2.77-2.42,2.79h.06c-.74.35-1.53.72-2.39,1.15-1.58.8-3.35,1.72-5.21,2.85a62,62,0,0,0-5.83,3.94,44.34,44.34,0,0,0-5.83,5.29l-.06.07c.35-.76,1.27-2.93,1.32-3.1.73-2.46.69-7.63-1.68-9.25a3.41,3.41,0,0,0-4.7,1l-.17.31c-1,1.78-.45,4.22.34,6,.89,2,4.41,5,4.69,5.29a61.18,61.18,0,0,0-4.87,6.36q-1.3,1.93-2.53,4c.28-.67.53-1.27.56-1.36.72-2.46.68-7.63-1.69-9.25a3.41,3.41,0,0,0-4.7,1l-.17.31c-1,1.78-.45,4.22.34,6S36,232,36.75,232.66l-.94,1.56c-1.48,2.49-2.94,5-4.45,7.39-.54.85-1.09,1.66-1.64,2.48.25-.6.45-1.1.48-1.18.72-2.46.68-7.63-1.69-9.25a3.4,3.4,0,0,0-4.7,1,1.65,1.65,0,0,0-.15.25c-1,1.78-.44,4.22.35,6s3.46,4.19,4.4,5c-.59.82-1.19,1.64-1.79,2.41-.43.51-.81,1-1.27,1.53L24,251.33c-.87.91-1.77,1.85-2.64,2.72-.6.6-1.19,1.17-1.78,1.74.54-.83,1.56-2.5,1.63-2.64a13.14,13.14,0,0,0,1-6.58,3.55,3.55,0,0,0,.26-.71,3.39,3.39,0,0,0-2.27-4.22,2.37,2.37,0,0,0-.36-.09c-2.83-.45-6.41,3.29-7.57,5.58-.06.13-.64,1.68-1,2.66.12-.61.24-1.2.35-1.82.23-1.24.43-2.49.64-3.82l.24-2c.1-.65.11-1.36.17-2,.11-1.6.14-3.21.13-4.85,1.08.2,5,.85,6.82.4s4.1-1.54,4.9-3.4a3.39,3.39,0,0,0-1.63-4.51,2.39,2.39,0,0,0-.37-.15c-2.73-.87-6.83,2.28-8.32,4.37-.09.13-1,1.74-1.47,2.64,0-1,0-2-.06-3-.13-2.86-.35-5.76-.55-8.65-.06-.88-.12-1.76-.17-2.65.38.08,5,1,7,.44s4.1-1.54,4.91-3.4a3.39,3.39,0,0,0-1.63-4.51,2.39,2.39,0,0,0-.37-.15c-2.73-.87-6.83,2.29-8.32,4.37-.11.16-1.4,2.48-1.7,3.09-.12-1.94-.23-3.88-.25-5.8a58.91,58.91,0,0,1,.36-7.74c.18,0,5,1,7.09.45,1.86-.46,4.11-1.55,4.91-3.41a3.4,3.4,0,0,0-1.65-4.52L22,199c-2.73-.87-6.83,2.29-8.32,4.37-.09.14-1.08,1.91-1.53,2.77l-.15,0a42.31,42.31,0,0,1,1.76-7.6c.43-1.37.92-2.65,1.42-3.89.87.27,4.86,1.43,6.84,1.18s4.25-1.09,5.25-2.84a3.39,3.39,0,0,0-1.09-4.67l-.33-.18c-2.62-1.17-7,1.52-8.75,3.43-.09.1-.92,1.26-1.51,2.11.23-.55.47-1.13.7-1.66.88-2,1.81-3.74,2.65-5.29.48-.88.93-1.67,1.36-2.4,1-.18,5-1,6.59-2.1s3.26-2.92,3.35-4.94a3.41,3.41,0,0,0-3.16-3.64h-.34c-2.86.18-5.55,4.6-6.19,7.08-.05.21-.53,3.67-.47,3.66h.05c-.42.7-.88,1.45-1.36,2.28-.87,1.54-1.84,3.28-2.76,5.25a60.46,60.46,0,0,0-2.69,6.5,44.62,44.62,0,0,0-2,7.63.14.14,0,0,0,0,.09c-.13-.83-.56-3.14-.61-3.31-.75-2.45-3.64-6.75-6.51-6.79a3.39,3.39,0,0,0-3.34,3.46c0,.11,0,.23,0,.34.17,2,2,3.77,3.57,4.79,1.83,1.14,6.47,1.77,6.84,1.82a59.42,59.42,0,0,0-.56,8c0,1.56,0,3.13.07,4.7-.13-.72-.25-1.35-.28-1.44-.75-2.45-3.64-6.74-6.5-6.78a3.4,3.4,0,0,0-3.36,3.43c0,.12,0,.25,0,.37.18,2,2,3.76,3.58,4.78s5.58,1.65,6.63,1.79a15.56,15.56,0,0,0,.07,1.81c.15,2.9.3,5.79.37,8.63v3c-.12-.64-.23-1.17-.25-1.25-.75-2.45-3.64-6.74-6.51-6.78a3.4,3.4,0,0,0-3.35,3.44c0,.12,0,.24,0,.36.17,2,2,3.76,3.57,4.78s5.2,1.59,6.45,1.77c0,1-.08,2-.17,3-.07.66-.1,1.31-.21,2s-.19,1.31-.28,2c-.23,1.24-.46,2.52-.71,3.73-.17.84-.34,1.63-.52,2.43,0-1-.07-2.94-.1-3.1-.37-2.54-2.57-7.22-5.4-7.69A3.39,3.39,0,0,0,0,242.27a2.34,2.34,0,0,0,0,.38c-.14,2,1.36,4,2.81,5.27s5.9,2.67,6.44,2.82c-.3,1.33-.6,2.62-.9,3.83-1,4.2-2.06,7.65-2.81,10.06a1.17,1.17,0,0,1-.07.25l1.78.78a2,2,0,0,1,.14-.48c.7-2.45,1.66-6,2.61-10.22.31-1.35.61-2.79.9-4.28a36.82,36.82,0,0,0,4.33-.1c.7,2,3.39,5.27,3.74,5.68-1,.95-1.94,1.86-2.86,2.7-3.18,2.93-5.94,5.25-7.89,6.85L8,266l2,.87c1.9-1.63,4.44-3.88,7.33-6.66,1-1,2-2,3.1-3.07.45.32,4.13,2.92,6.2,3.33,1.87.37,4.37.32,5.88-1a3.39,3.39,0,0,0,.44-4.77,3.45,3.45,0,0,0-.26-.28c-2.12-1.93-7.16-.79-9.38.48-.14.08-1.47,1.05-2.3,1.68.43-.45.86-.87,1.3-1.33.87-.91,1.72-1.84,2.63-2.84l1.29-1.5c.44-.5.84-1.08,1.27-1.61,1-1.28,1.88-2.61,2.78-4,.79.76,3.66,3.43,5.47,4.09s4.27,1,6-.13a3.4,3.4,0,0,0,1.17-4.66,4,4,0,0,0-.23-.34c-1.8-2.23-7-1.86-9.35-.94-.15,0-1.79.91-2.68,1.39.53-.82,1.06-1.64,1.57-2.49,1.48-2.46,2.89-5,4.31-7.52l1.32-2.3c.28.27,3.62,3.52,5.64,4.25,1.8.65,4.27,1,6-.13a3.4,3.4,0,0,0,1.25-4.63c-.08-.13-.16-.25-.25-.37-1.8-2.23-7-1.86-9.35-.94-.18.07-2.54,1.29-3.13,1.64,1-1.69,2-3.37,3-5A60.82,60.82,0,0,1,45.6,221c.13.13,3.59,3.54,5.67,4.29,1.8.65,4.27,1,6-.13a3.39,3.39,0,0,0,1.18-4.65,2.71,2.71,0,0,0-.24-.35c-1.8-2.24-7-1.87-9.35-1-.15.06-2,1-2.8,1.46l-.1-.13a44.82,44.82,0,0,1,5.66-5.36c1.11-.9,2.23-1.71,3.33-2.46.58.7,3.27,3.88,5.06,4.76s4.14,1.44,5.95.52a3.39,3.39,0,0,0,1.65-4.5,3.24,3.24,0,0,0-.17-.32c-1.54-2.42-6.71-2.62-9.19-2-.13,0-1.46.54-2.43.93.51-.33,1-.69,1.51-1,1.82-1.16,3.57-2.12,5.12-3,.89-.46,1.7-.87,2.47-1.24.92.39,4.69,1.92,6.65,1.88s4.33-.63,5.52-2.28a3.4,3.4,0,0,0-.73-4.75Z"/><path class="cls-4" d="M15.12,194.15c.05,0,.35-3.45.34-3.67-.07-2.56-1.73-7.46-4.48-8.26a3.4,3.4,0,0,0-4.14,2.43c0,.12,0,.24-.07.36-.37,2,.89,4.15,2.18,5.56C10.47,192.22,15.12,194.15,15.12,194.15Z"/><path class="cls-4" d="M325.82,87.4s.77-13-5.36-20.31-15.33-1.91-23.75-3.83,1.91-12.25-11.5-19.92-23.75.39-26,8.82-3.45,11.49-11.11,8-14.94,1.15-14.94,7.66,2.68,11.49-6.13,10.34-16.86,1.15-18.39,4.6S216.3,87,204,87s-18.38,2.3-19.15,4.22-11.11,2.3-16.85,3.06-6.9,1.92-6.9,1.92h180s.38-4.6-5.36-6.13S331.57,90.46,325.82,87.4Z"/></g><g id="freepik--Cloud--inject-127"><path class="cls-2" d="M133.29,35.22s.44-7.46-3.07-11.63-8.78-1.09-13.6-2.19,1.09-7-6.58-11.41-13.61.22-14.92,5-2,6.58-6.36,4.6S80.2,20.3,80.2,24s1.53,6.58-3.51,5.93-9.65.65-10.53,2.63S70.55,35,63.53,35s-10.53,1.32-11,2.41-6.37,1.32-9.66,1.76-3.95,1.1-3.95,1.1H142.07s.21-2.64-3.08-3.51S136.58,37,133.29,35.22Z"/><path class="cls-5" d="M133.29,35.22s.44-7.46-3.07-11.63-8.78-1.09-13.6-2.19,1.09-7-6.58-11.41-13.61.22-14.92,5-2,6.58-6.36,4.6S80.2,20.3,80.2,24s1.53,6.58-3.51,5.93-9.65.65-10.53,2.63S70.55,35,63.53,35s-10.53,1.32-11,2.41-6.37,1.32-9.66,1.76-3.95,1.1-3.95,1.1H142.07s.21-2.64-3.08-3.51S136.58,37,133.29,35.22Z"/></g><g id="freepik--Floor--inject-127"><path class="cls-6" d="M.89,277.78c-1.59-.9.19.72,2.63,2.76A9.88,9.88,0,0,0,.89,277.78Z"/><path class="cls-6" d="M387,277.78a9.88,9.88,0,0,0-2.63,2.76C386.82,278.48,388.6,276.86,387,277.78Z"/><path class="cls-2" d="M384.38,280.52c-3,2.5-7,5.65-7,5.65l7.11-14.39-6.56,4.4v-4l-3,1.2-3.57-19.6-3,14-3-6-5.18,6.35-.79-.52-.6-1.42,2-7.21-3,3.21a31.7,31.7,0,0,0,.51-9.22,57.37,57.37,0,0,0-2-9.61s-1.52,9.61-1.52,12a34.94,34.94,0,0,1-.5,5.2l-4.55-8-1.51,5.61v-8l-6.56,3.2,1.51-4.4-6.06,4-2.52-9.21-2.53,7.61-8.07-20-.59,16.41-6.56-5.61-3.54,1.2-1-4.4-6.05,3.2-1-6.81-5.59,6.36-5.55-6.41-.51,7.21-5.55-4.4-.36,4.6c-1.21-.24-2.43-.46-3.66-.69-5.71-2.55-9.61-4.31-9.61-4.31l7.65,4A520.65,520.65,0,0,0,193,234.43a524.75,524.75,0,0,0-86.18,6.79l6.68-3.46-8.32,3.74c-1.67.29-3.33.58-5,.89l-.34-4.23-5.55,4.4-.51-7.21-5.55,6.41-5.53-6.45-1,6.81-6.06-3.2-1,4.4-3.54-1.2-6.56,5.66L64,231.36l-8.08,20-2.53-7.61L50.87,253l-6.06-4,1.52,4.4-6.57-3.2v8l-1.51-5.61-4.55,8a34.94,34.94,0,0,1-.5-5.2c0-2.41-1.52-12-1.52-12a57.37,57.37,0,0,0-2,9.61,31.7,31.7,0,0,0,.51,9.22l-3-3.21,2,7c-.69.42-1.37.84-2,1.26l-4.59-5.45-3,6-3-14L13.06,273.4l-3-1.2v4l-6.65-4.42,6.38,13-.27.63c-1.36-1.09-3.92-3.14-6-4.89a59.68,59.68,0,0,1,4.75,8.57c-.14.59-.25,1.18-.34,1.78l-2.5-1.49,2.31,4.8C8.62,326.67,91.2,352.93,193,352.93c93.33,0,170.52-22.08,183.36-50.81l3.77-7.83,2.37-4.91-4,2.4A73.62,73.62,0,0,1,384.38,280.52Z"/><g class="cls-7"><path class="cls-4" d="M1,268.45c-1.59-.9.19.72,2.63,2.76A9.74,9.74,0,0,0,1,268.45Z"/><path class="cls-4" d="M387.11,268.45a9.88,9.88,0,0,0-2.63,2.76C386.92,269.15,388.7,267.53,387.11,268.45Z"/><path class="cls-4" d="M384.48,280.6c-3,2.5-7,5.65-7,5.65l7.11-14.39-6.56,4.4v-4l-3,1.2-3.57-19.6-3,14-3-6-5.18,6.35-.79-.52-.6-1.42,2-7.21-3,3.21a31.7,31.7,0,0,0,.51-9.22,56.39,56.39,0,0,0-2-9.61s-1.52,9.61-1.52,12a33.66,33.66,0,0,1-.5,5.2l-4.55-8-1.51,5.61v-8l-6.56,3.2,1.51-4.4-6.06,4-2.52-9.21-2.53,7.61-8.07-20-.59,16.41-6.56-5.61-3.54,1.2-1-4.4-6,3.2-1-6.81-5.59,6.36-5.55-6.41-.51,7.21-5.55-4.4-.36,4.6c-1.21-.24-2.43-.46-3.66-.69-5.71-2.55-9.61-4.31-9.61-4.31l7.65,4a520.65,520.65,0,0,0-89.11-7.29,524.92,524.92,0,0,0-86.18,6.79l6.68-3.46-8.32,3.74c-1.67.29-3.33.58-5,.89l-.34-4.23-5.55,4.4-.51-7.21-5.55,6.41-5.53-6.45-1,6.81L75.7,239l-1,4.4-3.54-1.2-6.56,5.66-.5-16.42-8.08,20-2.53-7.61L51,253l-6.06-4,1.52,4.4-6.57-3.2v8l-1.51-5.61-4.55,8a36.32,36.32,0,0,1-.5-5.2c0-2.41-1.52-12-1.52-12a57.37,57.37,0,0,0-2,9.61,32.05,32.05,0,0,0,.51,9.22l-3-3.21,2,7c-.69.42-1.37.84-2,1.26l-4.59-5.45-3,6-3-14-3.54,19.62-3-1.2v4l-6.65-4.42,6.38,13-.27.63c-1.36-1.09-3.92-3.14-6-4.89a58.73,58.73,0,0,1,4.75,8.57c-.14.59-.25,1.18-.34,1.78l-2.5-1.49,2.31,4.8C8.72,326.75,91.3,353,193.07,353c93.33,0,170.52-22.08,183.36-50.81l3.77-7.83,2.37-4.91-4,2.4A73.62,73.62,0,0,1,384.48,280.6Z"/></g></g><g id="freepik--Plants--inject-127"><path class="cls-2" d="M123.41,147.06s-.53-2.83-.58-3c-.66-2-3.12-5.55-5.51-5.55a2.84,2.84,0,0,0-2.74,2.92l0,.29c.17,1.68,1.68,3.1,3,3.93C119.25,146.6,123.41,147.06,123.41,147.06Z"/><path class="cls-2" d="M128,128c-2.25.81-3.36,5-3.29,7.09,0,.18.43,3,.47,3h0c-.18.65-.36,1.36-.55,2.13-.34,1.43-.71,3-1,4.84a51.33,51.33,0,0,0-.63,5.81,36.66,36.66,0,0,0,.22,6.54v.08c-.29-.64-1.17-2.38-1.26-2.51-1.16-1.78-4.47-4.53-6.77-3.9a2.84,2.84,0,0,0-1.86,3.56,1.06,1.06,0,0,0,.09.25c.61,1.57,2.44,2.55,4,3,1.72.49,5.57-.09,5.88-.14a51.7,51.7,0,0,0,1.41,6.51c.36,1.25.75,2.5,1.16,3.74-.27-.54-.52-1-.56-1.08-1.17-1.78-4.47-4.54-6.77-3.9a2.82,2.82,0,0,0-1.88,3.52,2.49,2.49,0,0,0,.11.29c.61,1.57,2.44,2.54,4,3s4.84,0,5.71-.11c.16.47.31.95.48,1.42.79,2.28,1.58,4.55,2.29,6.8.26.8.47,1.59.7,2.38-.25-.48-.45-.88-.49-.94-1.17-1.78-4.47-4.54-6.77-3.9a2.82,2.82,0,0,0-1.88,3.52,2.49,2.49,0,0,0,.11.29c.61,1.57,2.43,2.55,4,3s4.53.05,5.56-.09c.2.82.4,1.63.56,2.43.1.55.23,1.07.3,1.63s.15,1.09.23,1.63c.1,1,.22,2.12.3,3.14.06.7.11,1.38.15,2.06-.24-.79-.74-2.33-.8-2.46a11,11,0,0,0-3.65-4.15,2.9,2.9,0,0,0-.31-.54,2.81,2.81,0,0,0-3.9-.83l-.25.18c-1.8,1.56-1.35,5.83-.52,7.8,0,.11.72,1.31,1.16,2l-1-1.2c-.67-.81-1.35-1.6-2.08-2.45-.37-.4-.75-.8-1.12-1.21s-.8-.8-1.21-1.21c-1-.92-2-1.81-3-2.68.71-.58,3.2-2.69,3.91-4.11s1.23-3.44.48-4.95a2.83,2.83,0,0,0-3.74-1.4l-.26.14c-2,1.26-2.23,5.56-1.7,7.62,0,.13.57,1.57.89,2.36-.63-.52-1.26-1-1.91-1.55-1.89-1.46-3.84-2.87-5.78-4.3-.6-.43-1.19-.87-1.78-1.31.26-.2,3.27-2.64,4.07-4.24.72-1.42,1.23-3.43.48-4.94a2.82,2.82,0,0,0-3.73-1.41l-.27.14c-2,1.27-2.22,5.56-1.7,7.63,0,.15.82,2.22,1,2.74-1.3-1-2.59-1.94-3.82-3a50.26,50.26,0,0,1-4.72-4.39c.12-.09,3.28-2.62,4.1-4.26.71-1.42,1.22-3.43.48-4.94a2.83,2.83,0,0,0-3.75-1.4l-.25.13c-2,1.27-2.22,5.56-1.7,7.63,0,.13.63,1.71.94,2.46l-.12.07a35.09,35.09,0,0,1-3.87-5.2c-.64-1-1.19-2-1.71-3,.64-.41,3.52-2.32,4.43-3.71s1.59-3.28,1-4.86a2.82,2.82,0,0,0-3.55-1.81l-.29.11c-2.15,1-2.82,5.28-2.53,7.39,0,.12.31,1.26.53,2.1-.23-.45-.47-.91-.68-1.34-.78-1.62-1.4-3.16-1.93-4.52-.3-.78-.56-1.49-.79-2.16a20.36,20.36,0,0,0,2.2-5.31A5.69,5.69,0,0,0,88,143.93a2.85,2.85,0,0,0-4,0l-.18.21c-1.42,1.91-.06,6,1.17,7.73.11.15,2,2.31,2.06,2.27h0c.21.64.44,1.33.71,2.08.51,1.38,1.09,2.93,1.85,4.58a45.58,45.58,0,0,0,2.68,5.2,36.25,36.25,0,0,0,3.79,5.33l0,.06c-.59-.37-2.29-1.34-2.43-1.4-2-.84-6.23-1.31-7.8.49a2.82,2.82,0,0,0,.38,4,1.44,1.44,0,0,0,.25.18c1.37,1,3.44.78,5,.3,1.71-.54,4.6-3.15,4.83-3.36a48.69,48.69,0,0,0,4.77,4.65c1,.85,2,1.67,3,2.48l-1.07-.59c-2-.84-6.23-1.32-7.8.48a2.81,2.81,0,0,0,.37,4,2.48,2.48,0,0,0,.26.19c1.37,1,3.44.79,5,.31s4-2.66,4.71-3.25l1.19.92c1.91,1.47,3.83,2.92,5.66,4.41.65.52,1.27,1.06,1.89,1.6l-.93-.52c-2-.84-6.23-1.31-7.8.48a2.83,2.83,0,0,0,.39,4l.24.18c1.37,1,3.44.78,5,.3s3.8-2.45,4.59-3.14c.61.57,1.24,1.14,1.81,1.72.38.4.78.76,1.14,1.19l1.09,1.23c.67.81,1.36,1.65,2,2.45.44.56.85,1.1,1.26,1.64-.63-.53-1.91-1.53-2-1.61-1.81-1.12-6-2.24-7.78-.7a2.81,2.81,0,0,0-.23,4,2.5,2.5,0,0,0,.23.23c1.21,1.17,3.28,1.29,4.85,1,1.73-.27,4.86-2.31,5.25-2.57.68.9,1.34,1.78,1.94,2.62,2.11,2.92,3.76,5.42,4.88,7.19l.12.18,1.46-.71-.23-.34c-1.18-1.77-2.9-4.26-5.09-7.16-.69-.91-1.45-1.88-2.23-2.86a30.53,30.53,0,0,0,2.26-2.81,20.47,20.47,0,0,0,5.62.69c.07,1.12.13,2.22.17,3.26.16,3.59.14,6.59.11,8.68v.25l1.61-.78c0-2.08-.08-4.9-.29-8.22-.08-1.15-.17-2.37-.29-3.63.45-.11,4.08-1,5.45-2.13s2.55-2.61,2.5-4.29a2.82,2.82,0,0,0-2.8-2.84h-.3c-2.37.3-4.35,4.12-4.74,6.21,0,.13-.12,1.5-.17,2.36a14.05,14.05,0,0,0-.15-1.54c-.1-1-.24-2.08-.38-3.19-.09-.54-.17-1.08-.26-1.63s-.23-1.11-.34-1.67c-.29-1.3-.64-2.59-1-3.9.91-.09,4.15-.47,5.53-1.27s2.92-2.18,3.13-3.85a2.82,2.82,0,0,0-2.33-3.24l-.31,0c-2.38-.06-4.92,3.41-5.63,5.42,0,.13-.38,1.63-.55,2.46-.24-.78-.47-1.56-.74-2.35-.77-2.25-1.62-4.51-2.45-6.77-.26-.69-.51-1.38-.76-2.07.33,0,4.18-.4,5.74-1.29,1.37-.8,2.91-2.19,3.12-3.86a2.82,2.82,0,0,0-2.33-3.24l-.31,0c-2.38-.06-4.92,3.42-5.62,5.43-.06.15-.54,2.31-.64,2.86-.55-1.52-1.09-3-1.55-4.57a49.8,49.8,0,0,1-1.52-6.27c.16,0,4.18-.38,5.77-1.29,1.38-.79,2.92-2.19,3.13-3.86a2.83,2.83,0,0,0-2.36-3.23l-.28,0c-2.39-.06-4.93,3.41-5.63,5.42,0,.13-.42,1.78-.58,2.56h-.13a35,35,0,0,1-.36-6.47,34.3,34.3,0,0,1,.22-3.44c.76,0,4.22,0,5.74-.65s3.14-1.86,3.53-3.49a2.82,2.82,0,0,0-2.05-3.42l-.32-.06c-2.36-.32-5.26,2.85-6.18,4.77,0,.11-.44,1.23-.71,2,0-.49.1-1,.17-1.48.24-1.79.57-3.41.88-4.85.18-.81.36-1.54.53-2.23.75-.38,3.74-1.94,4.77-3.21s1.93-3.09,1.52-4.72a2.83,2.83,0,0,0-3.35-2.17Z"/><path class="cls-2" d="M84.92,164.72c1.86-.07,5.59-2,5.59-2s-2-2.07-2.15-2.18c-1.66-1.33-5.66-2.92-7.65-1.6a2.82,2.82,0,0,0-.68,3.93l.19.24C81.29,164.42,83.33,164.78,84.92,164.72Z"/><g class="cls-7"><path class="cls-4" d="M123.41,147.06s-.53-2.83-.58-3c-.66-2-3.12-5.55-5.51-5.55a2.84,2.84,0,0,0-2.74,2.92l0,.29c.17,1.68,1.68,3.1,3,3.93C119.25,146.6,123.41,147.06,123.41,147.06Z"/><path class="cls-4" d="M128,128c-2.25.81-3.36,5-3.29,7.09,0,.18.43,3,.47,3h0c-.18.65-.36,1.36-.55,2.13-.34,1.43-.71,3-1,4.84a51.33,51.33,0,0,0-.63,5.81,36.66,36.66,0,0,0,.22,6.54v.08c-.29-.64-1.17-2.38-1.26-2.51-1.16-1.78-4.47-4.53-6.77-3.9a2.84,2.84,0,0,0-1.86,3.56,1.06,1.06,0,0,0,.09.25c.61,1.57,2.44,2.55,4,3,1.72.49,5.57-.09,5.88-.14a51.7,51.7,0,0,0,1.41,6.51c.36,1.25.75,2.5,1.16,3.74-.27-.54-.52-1-.56-1.08-1.17-1.78-4.47-4.54-6.77-3.9a2.82,2.82,0,0,0-1.88,3.52,2.49,2.49,0,0,0,.11.29c.61,1.57,2.44,2.54,4,3s4.84,0,5.71-.11c.16.47.31.95.48,1.42.79,2.28,1.58,4.55,2.29,6.8.26.8.47,1.59.7,2.38-.25-.48-.45-.88-.49-.94-1.17-1.78-4.47-4.54-6.77-3.9a2.82,2.82,0,0,0-1.88,3.52,2.49,2.49,0,0,0,.11.29c.61,1.57,2.43,2.55,4,3s4.53.05,5.56-.09c.2.82.4,1.63.56,2.43.1.55.23,1.07.3,1.63s.15,1.09.23,1.63c.1,1,.22,2.12.3,3.14.06.7.11,1.38.15,2.06-.24-.79-.74-2.33-.8-2.46a11,11,0,0,0-3.65-4.15,2.9,2.9,0,0,0-.31-.54,2.81,2.81,0,0,0-3.9-.83l-.25.18c-1.8,1.56-1.35,5.83-.52,7.8,0,.11.72,1.31,1.16,2l-1-1.2c-.67-.81-1.35-1.6-2.08-2.45-.37-.4-.75-.8-1.12-1.21s-.8-.8-1.21-1.21c-1-.92-2-1.81-3-2.68.71-.58,3.2-2.69,3.91-4.11s1.23-3.44.48-4.95a2.83,2.83,0,0,0-3.74-1.4l-.26.14c-2,1.26-2.23,5.56-1.7,7.62,0,.13.57,1.57.89,2.36-.63-.52-1.26-1-1.91-1.55-1.89-1.46-3.84-2.87-5.78-4.3-.6-.43-1.19-.87-1.78-1.31.26-.2,3.27-2.64,4.07-4.24.72-1.42,1.23-3.43.48-4.94a2.82,2.82,0,0,0-3.73-1.41l-.27.14c-2,1.27-2.22,5.56-1.7,7.63,0,.15.82,2.22,1,2.74-1.3-1-2.59-1.94-3.82-3a50.26,50.26,0,0,1-4.72-4.39c.12-.09,3.28-2.62,4.1-4.26.71-1.42,1.22-3.43.48-4.94a2.83,2.83,0,0,0-3.75-1.4l-.25.13c-2,1.27-2.22,5.56-1.7,7.63,0,.13.63,1.71.94,2.46l-.12.07a35.09,35.09,0,0,1-3.87-5.2c-.64-1-1.19-2-1.71-3,.64-.41,3.52-2.32,4.43-3.71s1.59-3.28,1-4.86a2.82,2.82,0,0,0-3.55-1.81l-.29.11c-2.15,1-2.82,5.28-2.53,7.39,0,.12.31,1.26.53,2.1-.23-.45-.47-.91-.68-1.34-.78-1.62-1.4-3.16-1.93-4.52-.3-.78-.56-1.49-.79-2.16a20.36,20.36,0,0,0,2.2-5.31A5.69,5.69,0,0,0,88,143.93a2.85,2.85,0,0,0-4,0l-.18.21c-1.42,1.91-.06,6,1.17,7.73.11.15,2,2.31,2.06,2.27h0c.21.64.44,1.33.71,2.08.51,1.38,1.09,2.93,1.85,4.58a45.58,45.58,0,0,0,2.68,5.2,36.25,36.25,0,0,0,3.79,5.33l0,.06c-.59-.37-2.29-1.34-2.43-1.4-2-.84-6.23-1.31-7.8.49a2.82,2.82,0,0,0,.38,4,1.44,1.44,0,0,0,.25.18c1.37,1,3.44.78,5,.3,1.71-.54,4.6-3.15,4.83-3.36a48.69,48.69,0,0,0,4.77,4.65c1,.85,2,1.67,3,2.48l-1.07-.59c-2-.84-6.23-1.32-7.8.48a2.81,2.81,0,0,0,.37,4,2.48,2.48,0,0,0,.26.19c1.37,1,3.44.79,5,.31s4-2.66,4.71-3.25l1.19.92c1.91,1.47,3.83,2.92,5.66,4.41.65.52,1.27,1.06,1.89,1.6l-.93-.52c-2-.84-6.23-1.31-7.8.48a2.83,2.83,0,0,0,.39,4l.24.18c1.37,1,3.44.78,5,.3s3.8-2.45,4.59-3.14c.61.57,1.24,1.14,1.81,1.72.38.4.78.76,1.14,1.19l1.09,1.23c.67.81,1.36,1.65,2,2.45.44.56.85,1.1,1.26,1.64-.63-.53-1.91-1.53-2-1.61-1.81-1.12-6-2.24-7.78-.7a2.81,2.81,0,0,0-.23,4,2.5,2.5,0,0,0,.23.23c1.21,1.17,3.28,1.29,4.85,1,1.73-.27,4.86-2.31,5.25-2.57.68.9,1.34,1.78,1.94,2.62,2.11,2.92,3.76,5.42,4.88,7.19l.12.18,1.46-.71-.23-.34c-1.18-1.77-2.9-4.26-5.09-7.16-.69-.91-1.45-1.88-2.23-2.86a30.53,30.53,0,0,0,2.26-2.81,20.47,20.47,0,0,0,5.62.69c.07,1.12.13,2.22.17,3.26.16,3.59.14,6.59.11,8.68v.25l1.61-.78c0-2.08-.08-4.9-.29-8.22-.08-1.15-.17-2.37-.29-3.63.45-.11,4.08-1,5.45-2.13s2.55-2.61,2.5-4.29a2.82,2.82,0,0,0-2.8-2.84h-.3c-2.37.3-4.35,4.12-4.74,6.21,0,.13-.12,1.5-.17,2.36a14.05,14.05,0,0,0-.15-1.54c-.1-1-.24-2.08-.38-3.19-.09-.54-.17-1.08-.26-1.63s-.23-1.11-.34-1.67c-.29-1.3-.64-2.59-1-3.9.91-.09,4.15-.47,5.53-1.27s2.92-2.18,3.13-3.85a2.82,2.82,0,0,0-2.33-3.24l-.31,0c-2.38-.06-4.92,3.41-5.63,5.42,0,.13-.38,1.63-.55,2.46-.24-.78-.47-1.56-.74-2.35-.77-2.25-1.62-4.51-2.45-6.77-.26-.69-.51-1.38-.76-2.07.33,0,4.18-.4,5.74-1.29,1.37-.8,2.91-2.19,3.12-3.86a2.82,2.82,0,0,0-2.33-3.24l-.31,0c-2.38-.06-4.92,3.42-5.62,5.43-.06.15-.54,2.31-.64,2.86-.55-1.52-1.09-3-1.55-4.57a49.8,49.8,0,0,1-1.52-6.27c.16,0,4.18-.38,5.77-1.29,1.38-.79,2.92-2.19,3.13-3.86a2.83,2.83,0,0,0-2.36-3.23l-.28,0c-2.39-.06-4.93,3.41-5.63,5.42,0,.13-.42,1.78-.58,2.56h-.13a35,35,0,0,1-.36-6.47,34.3,34.3,0,0,1,.22-3.44c.76,0,4.22,0,5.74-.65s3.14-1.86,3.53-3.49a2.82,2.82,0,0,0-2.05-3.42l-.32-.06c-2.36-.32-5.26,2.85-6.18,4.77,0,.11-.44,1.23-.71,2,0-.49.1-1,.17-1.48.24-1.79.57-3.41.88-4.85.18-.81.36-1.54.53-2.23.75-.38,3.74-1.94,4.77-3.21s1.93-3.09,1.52-4.72a2.83,2.83,0,0,0-3.35-2.17Z"/><path class="cls-4" d="M84.92,164.72c1.86-.07,5.59-2,5.59-2s-2-2.07-2.15-2.18c-1.66-1.33-5.66-2.92-7.65-1.6a2.82,2.82,0,0,0-.68,3.93l.19.24C81.29,164.42,83.33,164.78,84.92,164.72Z"/></g><path class="cls-2" d="M145.4,187.57S156.71,160.31,163,161.5,152.18,205,152.18,205s19.9-37.54,33.47-37.54-5,41.49-22.16,55.31c0,0,27.13-29.23,43-22.91s-31.69,36-31.69,36,27.58-8.69,24.42-2-11.76,7.9-11.76,7.9l31.2,1.6H110.12l24.43-2.37S109.22,228.27,116,223.13s21.71,5.93,21.71,5.93-25.78-28.45-20.8-39.12S144,209.3,144,209.3,126,171,129.57,164.3,145.4,187.57,145.4,187.57Z"/><path class="cls-8" d="M145.4,187.57S156.71,160.31,163,161.5,152.18,205,152.18,205s19.9-37.54,33.47-37.54-5,41.49-22.16,55.31c0,0,27.13-29.23,43-22.91s-31.69,36-31.69,36,27.58-8.69,24.42-2-11.76,7.9-11.76,7.9l31.2,1.6H110.12l24.43-2.37S109.22,228.27,116,223.13s21.71,5.93,21.71,5.93-25.78-28.45-20.8-39.12S144,209.3,144,209.3,126,171,129.57,164.3,145.4,187.57,145.4,187.57Z"/><path class="cls-9" d="M141.78,189c9.95,29.4,9.95,50.2,9.95,50.2s-11.76.45-24-8.59"/><path class="cls-9" d="M146.76,204.84a176.13,176.13,0,0,1,8.14-25.78"/><path class="cls-9" d="M176.15,187.65l-25.32,37.54s-17.17-14.47-23.07-22.61"/><path class="cls-9" d="M151.28,234.23s26.68-12.66,37.53-19.89"/><path class="cls-2" d="M262.66,175.78s1.19-1.62,1.25-1.73c.72-1.3,1.36-4.23.22-5.44a2,2,0,0,0-2.83,0l-.09.1a4.08,4.08,0,0,0-.56,3.41A13.67,13.67,0,0,0,262.66,175.78Z"/><path class="cls-2" d="M274.58,169c-1.48-.77-4.13.64-5.18,1.68-.09.09-1.35,1.67-1.32,1.68h0l-1.35.73c-.89.51-1.89,1.09-2.93,1.79a35.6,35.6,0,0,0-3.27,2.44,25.86,25.86,0,0,0-3.23,3.22h0c.18-.45.65-1.73.68-1.83.35-1.44.19-4.43-1.23-5.3a2,2,0,0,0-2.72.78l-.06.12a4.12,4.12,0,0,0,.36,3.44,13.47,13.47,0,0,0,2.86,2.93,35.64,35.64,0,0,0-2.65,3.82c-.46.77-.91,1.56-1.35,2.36.14-.4.27-.75.28-.8.36-1.44.19-4.43-1.22-5.31a2,2,0,0,0-2.72.79l-.06.12a4.08,4.08,0,0,0,.36,3.44A13.18,13.18,0,0,0,252.6,188c-.17.31-.34.61-.5.92-.79,1.48-1.57,3-2.38,4.4-.28.5-.58,1-.88,1.48.13-.35.23-.65.25-.7.35-1.44.19-4.43-1.23-5.3a2,2,0,0,0-2.72.79l-.06.12a4.09,4.09,0,0,0,.36,3.43,12.67,12.67,0,0,0,2.68,2.79c-.32.49-.64,1-1,1.45-.23.3-.44.62-.69.92l-.72.89c-.48.55-1,1.12-1.46,1.64s-.65.71-1,1.06c.29-.5.84-1.49.87-1.58a7.68,7.68,0,0,0,.39-3.83,2.05,2.05,0,0,0-1.06-2.7,2.15,2.15,0,0,0-.45-.14c-1.65-.18-3.62,2.08-4.22,3.44,0,.08-.33,1-.5,1.56.05-.35.1-.69.15-1.06.1-.72.18-1.45.26-2.23,0-.37.06-.76.09-1.14s0-.79,0-1.19v-2.8a13.08,13.08,0,0,0,3.95,0,4.13,4.13,0,0,0,2.75-2.1,2,2,0,0,0-1.13-2.59l-.13-.05c-1.6-.43-3.89,1.5-4.69,2.75-.05.08-.53,1-.78,1.57a16.57,16.57,0,0,0-.12-1.71c-.15-1.65-.35-3.32-.55-5-.06-.51-.12-1-.17-1.53a13.68,13.68,0,0,0,4.09.06,4.13,4.13,0,0,0,2.75-2.1,2,2,0,0,0-1.13-2.59l-.13,0c-1.6-.43-3.89,1.5-4.69,2.75-.06.09-.75,1.48-.9,1.83-.13-1.12-.24-2.24-.31-3.34a33.64,33.64,0,0,1,0-4.49,14.22,14.22,0,0,0,4.12.06,4.13,4.13,0,0,0,2.75-2.1,2,2,0,0,0-1.13-2.59l-.13-.05c-1.6-.43-3.89,1.51-4.69,2.75,0,.08-.58,1.14-.81,1.64h-.09a24.18,24.18,0,0,1,.81-4.45c.21-.8.46-1.55.71-2.28a13.18,13.18,0,0,0,4,.49,4.07,4.07,0,0,0,3-1.79,2,2,0,0,0-.86-2.69l-.14-.07c-1.55-.6-4,1.07-5,2.22,0,.06-.5.76-.81,1.27l.36-1c.45-1.17.94-2.22,1.38-3.14.26-.52.5-1,.73-1.42a13.26,13.26,0,0,0,3.75-1.4,4.08,4.08,0,0,0,1.8-3,2,2,0,0,0-2-2h-.12c-1.65.18-3.08,2.81-3.38,4.26,0,.13-.21,2.14-.18,2.13h0q-.34.61-.72,1.35c-.46.92-1,2-1.46,3.12a33,33,0,0,0-1.38,3.83,25.34,25.34,0,0,0-.92,4.47v.05c-.1-.48-.41-1.8-.45-1.9-.5-1.4-2.28-3.8-3.94-3.75a2,2,0,0,0-1.84,2.15c0,.05,0,.1,0,.14a4.1,4.1,0,0,0,2.29,2.86,13.7,13.7,0,0,0,4,.87,34.2,34.2,0,0,0-.11,4.64c0,.9.1,1.81.17,2.72-.09-.41-.18-.78-.2-.83-.5-1.39-2.29-3.8-4-3.74a2,2,0,0,0-1.84,2.15s0,.1,0,.14a4.12,4.12,0,0,0,2.2,2.67,12.9,12.9,0,0,0,3.88.85c0,.35.07.7.1,1.05.16,1.67.33,3.34.44,5,0,.57.06,1.15.08,1.72-.08-.37-.16-.67-.17-.72-.5-1.4-2.29-3.8-4-3.75A2,2,0,0,0,232,187.7c0,.05,0,.1,0,.14a4,4,0,0,0,2.2,2.67,12.22,12.22,0,0,0,3.77.85v1.74a6.35,6.35,0,0,1-.07,1.15c-.07.39-.07.76-.11,1.14-.1.72-.19,1.47-.31,2.17-.07.49-.15,1-.23,1.43,0-.58-.13-1.7-.14-1.8-.29-1.45-1.69-4.1-3.34-4.3a2,2,0,0,0-2.15,1.85v.15a4.15,4.15,0,0,0,1.77,3,13.72,13.72,0,0,0,3.8,1.46c-.13.77-.27,1.53-.41,2.23-.48,2.46-1,4.49-1.35,5.9v.15l1.06.4.06-.28c.34-1.43.8-3.49,1.24-6,.14-.79.27-1.64.4-2.5a20.86,20.86,0,0,0,2.5-.18,14,14,0,0,0,2.32,3.19l-1.52,1.52c-1.76,1.78-3.29,3.2-4.38,4.17l-.13.11,1.16.45c1.06-1,2.46-2.36,4.06-4,.55-.58,1.13-1.21,1.71-1.86a13.56,13.56,0,0,0,3.68,1.76,4.11,4.11,0,0,0,3.37-.76,2,2,0,0,0,.09-2.83l-.09-.09c-1.28-1.07-4.17-.27-5.42.53l-1.28,1,.71-.8c.49-.55,1-1.11,1.45-1.71l.71-.91c.24-.3.45-.64.69-1,.52-.76,1-1.56,1.5-2.37a13,13,0,0,0,3.27,2.22,4.13,4.13,0,0,0,3.45-.24,2,2,0,0,0,.5-2.78l-.09-.12c-1.1-1.24-4.07-.88-5.43-.29-.09,0-1,.58-1.52.88.29-.49.57-1,.85-1.49.78-1.46,1.53-3,2.29-4.46l.7-1.37a13.63,13.63,0,0,0,3.37,2.31,4.06,4.06,0,0,0,3.45-.24,2,2,0,0,0,.5-2.78l-.08-.11c-1.1-1.25-4.08-.89-5.44-.3l-1.76,1c.51-1,1-2,1.59-3a34.25,34.25,0,0,1,2.48-3.75,13.87,13.87,0,0,0,3.4,2.33,4.13,4.13,0,0,0,3.45-.24,2,2,0,0,0,.5-2.78l-.09-.12c-1.1-1.24-4.08-.89-5.44-.29-.09,0-1.1.63-1.58.92l0,.06a26.77,26.77,0,0,1,3.13-3.26c.62-.55,1.24-1,1.86-1.51a13.14,13.14,0,0,0,3.05,2.61,4.11,4.11,0,0,0,3.46.15,2,2,0,0,0,.81-2.71l-.08-.13c-1-1.35-4-1.33-5.37-.88-.08,0-.83.35-1.38.6L264,175c1-.72,2-1.32,2.89-1.85.5-.29,1-.55,1.39-.78a13,13,0,0,0,3.9.9,4.11,4.11,0,0,0,3.13-1.46,2,2,0,0,0-.62-2.76Z"/><path class="cls-2" d="M235.37,164.49A13.8,13.8,0,0,0,239,166.4s.11-2,.1-2.14c-.12-1.47-1.2-4.27-2.82-4.65A2,2,0,0,0,234,161.2a.68.68,0,0,0,0,.14A4.08,4.08,0,0,0,235.37,164.49Z"/><g class="cls-7"><path class="cls-4" d="M262.66,175.78s1.19-1.62,1.25-1.73c.72-1.3,1.36-4.23.22-5.44a2,2,0,0,0-2.83,0l-.09.1a4.08,4.08,0,0,0-.56,3.41A13.67,13.67,0,0,0,262.66,175.78Z"/><path class="cls-4" d="M274.58,169c-1.48-.77-4.13.64-5.18,1.68-.09.09-1.35,1.67-1.32,1.68h0l-1.35.73c-.89.51-1.89,1.09-2.93,1.79a35.6,35.6,0,0,0-3.27,2.44,25.86,25.86,0,0,0-3.23,3.22h0c.18-.45.65-1.73.68-1.83.35-1.44.19-4.43-1.23-5.3a2,2,0,0,0-2.72.78l-.06.12a4.12,4.12,0,0,0,.36,3.44,13.47,13.47,0,0,0,2.86,2.93,35.64,35.64,0,0,0-2.65,3.82c-.46.77-.91,1.56-1.35,2.36.14-.4.27-.75.28-.8.36-1.44.19-4.43-1.22-5.31a2,2,0,0,0-2.72.79l-.06.12a4.08,4.08,0,0,0,.36,3.44A13.18,13.18,0,0,0,252.6,188c-.17.31-.34.61-.5.92-.79,1.48-1.57,3-2.38,4.4-.28.5-.58,1-.88,1.48.13-.35.23-.65.25-.7.35-1.44.19-4.43-1.23-5.3a2,2,0,0,0-2.72.79l-.06.12a4.09,4.09,0,0,0,.36,3.43,12.67,12.67,0,0,0,2.68,2.79c-.32.49-.64,1-1,1.45-.23.3-.44.62-.69.92l-.72.89c-.48.55-1,1.12-1.46,1.64s-.65.71-1,1.06c.29-.5.84-1.49.87-1.58a7.68,7.68,0,0,0,.39-3.83,2.05,2.05,0,0,0-1.06-2.7,2.15,2.15,0,0,0-.45-.14c-1.65-.18-3.62,2.08-4.22,3.44,0,.08-.33,1-.5,1.56.05-.35.1-.69.15-1.06.1-.72.18-1.45.26-2.23,0-.37.06-.76.09-1.14s0-.79,0-1.19v-2.8a13.08,13.08,0,0,0,3.95,0,4.13,4.13,0,0,0,2.75-2.1,2,2,0,0,0-1.13-2.59l-.13-.05c-1.6-.43-3.89,1.5-4.69,2.75-.05.08-.53,1-.78,1.57a16.57,16.57,0,0,0-.12-1.71c-.15-1.65-.35-3.32-.55-5-.06-.51-.12-1-.17-1.53a13.68,13.68,0,0,0,4.09.06,4.13,4.13,0,0,0,2.75-2.1,2,2,0,0,0-1.13-2.59l-.13,0c-1.6-.43-3.89,1.5-4.69,2.75-.06.09-.75,1.48-.9,1.83-.13-1.12-.24-2.24-.31-3.34a33.64,33.64,0,0,1,0-4.49,14.22,14.22,0,0,0,4.12.06,4.13,4.13,0,0,0,2.75-2.1,2,2,0,0,0-1.13-2.59l-.13-.05c-1.6-.43-3.89,1.51-4.69,2.75,0,.08-.58,1.14-.81,1.64h-.09a24.18,24.18,0,0,1,.81-4.45c.21-.8.46-1.55.71-2.28a13.18,13.18,0,0,0,4,.49,4.07,4.07,0,0,0,3-1.79,2,2,0,0,0-.86-2.69l-.14-.07c-1.55-.6-4,1.07-5,2.22,0,.06-.5.76-.81,1.27l.36-1c.45-1.17.94-2.22,1.38-3.14.26-.52.5-1,.73-1.42a13.26,13.26,0,0,0,3.75-1.4,4.08,4.08,0,0,0,1.8-3,2,2,0,0,0-2-2h-.12c-1.65.18-3.08,2.81-3.38,4.26,0,.13-.21,2.14-.18,2.13h0q-.34.61-.72,1.35c-.46.92-1,2-1.46,3.12a33,33,0,0,0-1.38,3.83,25.34,25.34,0,0,0-.92,4.47v.05c-.1-.48-.41-1.8-.45-1.9-.5-1.4-2.28-3.8-3.94-3.75a2,2,0,0,0-1.84,2.15c0,.05,0,.1,0,.14a4.1,4.1,0,0,0,2.29,2.86,13.7,13.7,0,0,0,4,.87,34.2,34.2,0,0,0-.11,4.64c0,.9.1,1.81.17,2.72-.09-.41-.18-.78-.2-.83-.5-1.39-2.29-3.8-4-3.74a2,2,0,0,0-1.84,2.15s0,.1,0,.14a4.12,4.12,0,0,0,2.2,2.67,12.9,12.9,0,0,0,3.88.85c0,.35.07.7.1,1.05.16,1.67.33,3.34.44,5,0,.57.06,1.15.08,1.72-.08-.37-.16-.67-.17-.72-.5-1.4-2.29-3.8-4-3.75A2,2,0,0,0,232,187.7c0,.05,0,.1,0,.14a4,4,0,0,0,2.2,2.67,12.22,12.22,0,0,0,3.77.85v1.74a6.35,6.35,0,0,1-.07,1.15c-.07.39-.07.76-.11,1.14-.1.72-.19,1.47-.31,2.17-.07.49-.15,1-.23,1.43,0-.58-.13-1.7-.14-1.8-.29-1.45-1.69-4.1-3.34-4.3a2,2,0,0,0-2.15,1.85v.15a4.15,4.15,0,0,0,1.77,3,13.72,13.72,0,0,0,3.8,1.46c-.13.77-.27,1.53-.41,2.23-.48,2.46-1,4.49-1.35,5.9v.15l1.06.4.06-.28c.34-1.43.8-3.49,1.24-6,.14-.79.27-1.64.4-2.5a20.86,20.86,0,0,0,2.5-.18,14,14,0,0,0,2.32,3.19l-1.52,1.52c-1.76,1.78-3.29,3.2-4.38,4.17l-.13.11,1.16.45c1.06-1,2.46-2.36,4.06-4,.55-.58,1.13-1.21,1.71-1.86a13.56,13.56,0,0,0,3.68,1.76,4.11,4.11,0,0,0,3.37-.76,2,2,0,0,0,.09-2.83l-.09-.09c-1.28-1.07-4.17-.27-5.42.53l-1.28,1,.71-.8c.49-.55,1-1.11,1.45-1.71l.71-.91c.24-.3.45-.64.69-1,.52-.76,1-1.56,1.5-2.37a13,13,0,0,0,3.27,2.22,4.13,4.13,0,0,0,3.45-.24,2,2,0,0,0,.5-2.78l-.09-.12c-1.1-1.24-4.07-.88-5.43-.29-.09,0-1,.58-1.52.88.29-.49.57-1,.85-1.49.78-1.46,1.53-3,2.29-4.46l.7-1.37a13.63,13.63,0,0,0,3.37,2.31,4.06,4.06,0,0,0,3.45-.24,2,2,0,0,0,.5-2.78l-.08-.11c-1.1-1.25-4.08-.89-5.44-.3l-1.76,1c.51-1,1-2,1.59-3a34.25,34.25,0,0,1,2.48-3.75,13.87,13.87,0,0,0,3.4,2.33,4.13,4.13,0,0,0,3.45-.24,2,2,0,0,0,.5-2.78l-.09-.12c-1.1-1.24-4.08-.89-5.44-.29-.09,0-1.1.63-1.58.92l0,.06a26.77,26.77,0,0,1,3.13-3.26c.62-.55,1.24-1,1.86-1.51a13.14,13.14,0,0,0,3.05,2.61,4.11,4.11,0,0,0,3.46.15,2,2,0,0,0,.81-2.71l-.08-.13c-1-1.35-4-1.33-5.37-.88-.08,0-.83.35-1.38.6L264,175c1-.72,2-1.32,2.89-1.85.5-.29,1-.55,1.39-.78a13,13,0,0,0,3.9.9,4.11,4.11,0,0,0,3.13-1.46,2,2,0,0,0-.62-2.76Z"/><path class="cls-4" d="M235.37,164.49A13.8,13.8,0,0,0,239,166.4s.11-2,.1-2.14c-.12-1.47-1.2-4.27-2.82-4.65A2,2,0,0,0,234,161.2a.68.68,0,0,0,0,.14A4.08,4.08,0,0,0,235.37,164.49Z"/></g><path class="cls-2" d="M243.59,209.44s7.88-19,12.29-18.17-7.56,30.28-7.56,30.28,13.86-26.15,23.31-26.15-3.47,28.9-15.44,38.53c0,0,18.9-20.36,29.93-16s-22,25-22,25,19.21-6.05,17-1.37-8.19,5.5-8.19,5.5l21.73,1.1h-75.6l17-1.65s-17.64-8.81-12.92-12.38,15.13,4.12,15.13,4.12-18-19.81-14.5-27.24,18.89,13.56,18.89,13.56-12.6-26.69-10.08-31.37S243.59,209.44,243.59,209.44Z"/><path class="cls-8" d="M243.59,209.42s7.88-19,12.29-18.17-7.56,30.28-7.56,30.28,13.86-26.15,23.31-26.15-3.47,28.9-15.44,38.53c0,0,18.9-20.36,29.93-16s-22,25-22,25,19.21-6,17-1.37-8.19,5.5-8.19,5.5l21.73,1.1h-75.6l17-1.65s-17.64-8.81-12.92-12.38,15.13,4.12,15.13,4.12-18-19.81-14.5-27.24,18.89,13.56,18.89,13.56-12.6-26.69-10.08-31.37S243.59,209.42,243.59,209.42Z"/><path class="cls-9" d="M241.07,210.44c6.93,20.47,6.93,35,6.93,35s-8.19.31-16.7-6"/><path class="cls-9" d="M244.54,221.46a121.43,121.43,0,0,1,5.67-18"/><path class="cls-9" d="M265,209.49l-17.64,26.15s-12-10.08-16.07-15.75"/><path class="cls-9" d="M247.66,241.94s18.58-8.82,26.14-13.86"/></g><g id="freepik--Characters--inject-127"><path class="cls-10" d="M123.39,287.29l-3.6-4.2,6.87,3.69v-2.9l4,3.41,2.69-4.1s-.28,3.93,1.52,4S141,285,141,285l.71,1.19,4.68-1,1.9,1.89,1.79-4,1.8,4.2v-5l4.68,2.1-2.16-3.93,3.6,2.36,1.08-5.25,2.88,4.72,1.44-5.51,3.24,4.46,6.48-2.62v3.41l5.4-2.1,2.52-1,3.24.53,3.24-2.89,7.56-1.05-1.8-2.88,5.76,1.83,3.6-4.72,1.25,3,1.63-3.48,3.6,2.62,5-3.41,7.92,6.29,6.48-5.24,3.6,8.13,12.24-.52-1.44,3.41,4.68-.79v2.36l2.88-1.31,2.16,3.67,3.6-3.67.18,3.71-1.26,5.73,2.88-1.05.36,2.89,4-1.57,3.24,4.19,3.6-5.51-.36,4.2,6.12-1.31h2.88l-9,5,5.76-.26h0L270,298.65l1.44,3.41,6.12-.53-7.92,3.68,5.76,1-10.8,2.1L260.26,307l1.44,2.36-5-.26,4,3.15-8.28-1.05,7.2,2.1-8.64.79-1.8,3.67-3-4s-.72,4.2-1.8,4.2a13.4,13.4,0,0,1-2.88-.52l.36,4.46-2.52-1.84L235,325.33l-2.52-3.15-4.68,4.72,6.84,2.36-4.32,1.31,5.76,2.1h-8.64l-.36,1.58-2.88-.53-1.8,1.31-3.24-.78-5,1-7.56-2.1-22.68-2.36-8.64-.53,3.6-1.31-4.68-1.31,4.32-.26-7.2-2.89h2.88v-1.84L171,320.29l-2.2-1.51,4.32,1.05-1.44-2.1,4,0-5.15-4.25,8.28-3.93-8.64-.53,10.08-1.57-10.08-1.84,2.88-1.31H161.55l4.68-3.41-4.68,2.36-5.4-2.62,4,3.15-7.56-1.32,1.8,2.89-8.28-2.89-1.45,2.35-4-3.67-10.08-.26,9.72-2.62h-7.56l7.56-2.1-9.36-.53,1.08-3.15-4,2.37-2.52-1.58v1.84l-4.68-2.89-.36,1.31-7.56-2.36h-2.52l-3.24.79-5.76-2.1H94.54l7.2-1.05-9.67-1.08,21.24-.52-6.12-2.89,11.16,4.46-1.44-2.62Z"/><path class="cls-11" d="M229.45,280.78s-8,4.75-11.25,6.75-8.54,4.25-6.54,5.73,11.25,1.5,14.5,1,9.75-.5,13.25-1,1-4.5,1-7a9.78,9.78,0,0,0-1.5-4.75Z"/><path class="cls-12" d="M211.71,291.62c-.55.6-.65,1.16,0,1.64,2,1.5,11.25,1.5,14.5,1s9.75-.5,13.25-1c2-.29,2-1.73,1.7-3.37-1.77.26-5.27.75-12.7,1.87C220.24,293,214.72,292.32,211.71,291.62Z"/><path class="cls-13" d="M200.2,85.51s-7.25,6-6,12,6,24.25,6.25,29.75,1,13.25,1,13.25l8,2.5s1.21-11.5,1.21-13.23-.25-4.25-.25-4.25,10.25,5.75,12.75,7,7,5.5,7,5.5a71,71,0,0,0-1.5,11.25,38.57,38.57,0,0,1-1.25,8.75s-20,37.5-24.25,45.75-2.25,12.5-1.5,13.75,21.25,37.75,24.25,47,4.25,14,4.25,14-1.25.25-1.25,1.25a19.07,19.07,0,0,1-.25,2.5,9.82,9.82,0,0,0,3.25,1c1.25,0,7.75-.25,7.75-.25s-10-43.5-11.75-53.25a66.17,66.17,0,0,0-6.5-18.25s34-33,43.25-41.75,14.75-13.75,13.5-24-13.25-23.25-13.25-23.25-7.71-18.75-14.71-26.75S230.7,85.53,222,84,205.66,82.51,200.2,85.51Z"/><path class="cls-11" d="M273.24,133.55a80,80,0,0,0-8.29-11s-7.75-18.77-14.75-26.77S230.7,85.53,222,84s-16.25-1.5-21.75,1.5c0,0-7.25,6-6,12s6,24.25,6.25,29.75,1,13.25,1,13.25l8,2.5s1.21-11.52,1.21-13.25-.25-4.25-.25-4.25,10.25,5.75,12.75,7,7,5.5,7,5.5a71,71,0,0,0-1.5,11.25v.49c3.58,1.93,10.93,4.1,23.51.51C264.15,146.84,270.12,139.48,273.24,133.55Z"/><path class="cls-9" d="M210.45,125.51s-1.5.5-2.25-5-2-9-4.75-12.75"/><path class="cls-2" d="M195.34,143a4.74,4.74,0,0,1,3.59,2.6,19.29,19.29,0,0,1,1.6,4.79l-1-.8,1.2,3.8a61.57,61.57,0,0,0,11.18-8c4.6-4.4,7.39-5.2,9.79-5.2s17.38,1,19.18.8,5.79-2.4,6.39.2-2.2,4.63-5.61,6.63-10,.8-12,.6a17.8,17.8,0,0,0-4.19.2s-8.59,6.19-13.59,13.38-10.58,13.59-14.58,12.59-8.19-6.19-8.79-6.19-5.39.2-7.19-3.4a26.84,26.84,0,0,1-2.19-5.39"/><g class="cls-14"><path class="cls-15" d="M195.34,143a4.74,4.74,0,0,1,3.59,2.6,19.29,19.29,0,0,1,1.6,4.79l-1-.8,1.2,3.8a61.57,61.57,0,0,0,11.18-8c4.6-4.4,7.39-5.2,9.79-5.2s17.38,1,19.18.8,5.79-2.4,6.39.2-2.2,4.63-5.61,6.63-10,.8-12,.6a17.8,17.8,0,0,0-4.19.2s-8.59,6.19-13.59,13.38-10.58,13.59-14.58,12.59-8.19-6.19-8.79-6.19-5.39.2-7.19-3.4a26.84,26.84,0,0,1-2.19-5.39"/></g><path class="cls-9" d="M195.34,143a4.74,4.74,0,0,1,3.59,2.6,19.29,19.29,0,0,1,1.6,4.79l-1-.8,1.2,3.8a61.57,61.57,0,0,0,11.18-8c4.6-4.4,7.39-5.2,9.79-5.2s17.38,1,19.18.8,5.79-2.4,6.39.2-2.2,4.63-5.61,6.63-10,.8-12,.6a17.8,17.8,0,0,0-4.19.2s-8.59,6.19-13.59,13.38-10.58,13.59-14.58,12.59-8.19-6.19-8.79-6.19-5.39.2-7.19-3.4a26.84,26.84,0,0,1-2.19-5.39"/><path class="cls-2" d="M142.66,248.45a73.09,73.09,0,0,0,5,7.79,58.68,58.68,0,0,0,7.19,8s-3.59,5.79-6.79,10.58-4.19,5.4-2,6.79,7.2,9.19,9.39,11.19,8.39,2.2,8.39,2.2,4-.8,3.2-2.8a4.5,4.5,0,0,0-4-2.6c-1,0-3.59-.2-4.39-.79s-5-5.2-5.59-6.6,5.39-6.39,8.78-11.78,6.4-5.79,3.8-13.78S144.26,243.05,142.66,248.45Z"/><g class="cls-16"><path class="cls-15" d="M142.14,248.45a73.09,73.09,0,0,0,5,7.79,58.68,58.68,0,0,0,7.19,8s-3.59,5.79-6.79,10.58-4.19,5.4-2,6.79,7.2,9.19,9.39,11.19,8.39,2.2,8.39,2.2,4-.8,3.2-2.8a4.5,4.5,0,0,0-4-2.6c-1,0-3.59-.2-4.39-.79s-5-5.2-5.59-6.6,5.39-6.39,8.78-11.78,6.4-5.79,3.8-13.78S143.74,243.05,142.14,248.45Z"/></g><path class="cls-9" d="M142.6,248.45a73.09,73.09,0,0,0,5,7.79,59.35,59.35,0,0,0,7.19,8S151.2,270,148,274.82s-4.19,5.4-2,6.79,7.2,9.19,9.39,11.19,8.39,2.2,8.39,2.2,4-.8,3.2-2.8a4.5,4.5,0,0,0-4-2.6c-1,0-3.59-.2-4.39-.79s-5-5.2-5.59-6.6,5.39-6.39,8.78-11.78,6.4-5.79,3.8-13.78S144.2,243.05,142.6,248.45Z"/><path class="cls-2" d="M154.38,146s-1.79,4.79-.6,7.39,2.8,5,3.2,8-1.8,23.17-3,33.36-7.19,20.57-11.38,25-5.19,5.4-5.19,5.4-11.59,3-16.78,8.19-7.19,8.59-12,10a15.26,15.26,0,0,1-14-3.59,58.68,58.68,0,0,1-4.24-4.68c-.37-.46-.55-.71-.55-.71v2.23s-6.6-5.23-6.6-4a34.63,34.63,0,0,0,.59,4.19s-3.19-3.59-3.19-2-.2,9,0,9.58-1.4-.4-1.4,1,1,5.79,4.79,10.39,16.22,11,27.63,7.7,12.18-17.18,14.58-22.17,10.42-6.79,10.42-6.79,1.2,11.78,6.79,17,16,9.59,18.57,13.59-.79,11.58-1.39,12.58-5.6,5.79-4,7.79,11.59,11.19,15,13.38,8.19,2.4,9.39,2.8,11.78.2,11.78-2.4-2.39-3.79-6.59-4.79-8.19,1.6-9.78.6-8.79-7-9.39-9,.8-9,5-12.58,15-9.19,13.58-24.17-6.39-22.38-6.39-22.38,7-14,16-22,11-19.37,11-19.37l1,2.2.8-6.8,1.19,1.2.4-3.39s2.6-14.78.2-24.57-6.19-13-6.19-13l2.2.59L201,139l.6-.8s-3.39-2.4-5-2.6-6.79-1.6-6.79-1.6,2.79-.59,2.2-.59-6.2-1.4-6.2-1.4l-2.39-.2s-4.6.6-11.79,5.19A151.57,151.57,0,0,1,154.38,146Z"/><g class="cls-17"><g class="cls-18"><path d="M111,252.78c5.5,0,7.5-11,16.5-19s23-11.5,29.5-21,10-27.5,13-36.5-3-14.5-4-23.5,3-8,7.5-11-3.5-2.5-3.5-2.5-1.36.23-3,.46c-6.22,3.46-12.57,6.26-12.57,6.26s-1.79,4.79-.6,7.39,2.8,5,3.2,8-1.8,23.17-3,33.36-7.19,20.57-11.38,25-5.19,5.4-5.19,5.4-11.59,3-16.78,8.19-7.19,8.59-12,10a14.57,14.57,0,0,1-8.69-.42C104.32,248,108.46,252.78,111,252.78Z"/><path d="M209.11,182.13l.4-3.39s.55-3.1.91-7.4c-1.66-1.51-3.17-2.58-4-2.58-2.5,0-14-.5-14-.5l-3.91.07s2.91,11.93,4.91,12.43,6.5,1,6.5,1-1.5,1,4,3a8.86,8.86,0,0,0,3.46.48l.51-4.31Z"/><path d="M186.14,294.39c-4.19-1-8.19,1.6-9.78.6s-8.79-7-9.39-9a10.57,10.57,0,0,1,.43-4.8c-2.09-.43-2.77-1.89-2-5.44,1.5-6.5,9-14,2-15.5s-14.5-9.5-19.5-15-6-13-11.34-10.79c0,0,1.2,11.78,6.79,17s16,9.59,18.57,13.59-.79,11.58-1.39,12.58-5.6,5.79-4,7.79,11.59,11.19,15,13.38,8.19,2.4,9.39,2.8,11.78.2,11.78-2.4S190.34,295.39,186.14,294.39Z"/><path d="M125.81,242.24a47.67,47.67,0,0,0-3.36,4.52c-5,7.5-10,14-25.5,10-10.51-2.71-15-14.61-14.84-21.84-.74-.62-1.43-1-1.43-.25,0,1.59-.2,9,0,9.58s-1.4-.4-1.4,1,1,5.79,4.79,10.39,16.18,11.14,27.59,7.79C122.35,260.23,123.66,247.86,125.81,242.24Z"/></g></g><path class="cls-9" d="M154.38,146s-1.79,4.79-.6,7.39,2.8,5,3.2,8-1.8,23.17-3,33.36-7.19,20.57-11.38,25-5.19,5.4-5.19,5.4-11.59,3-16.78,8.19-7.19,8.59-12,10a15.26,15.26,0,0,1-14-3.59,58.68,58.68,0,0,1-4.24-4.68c-.37-.46-.55-.71-.55-.71v2.23s-6.6-5.23-6.6-4a34.63,34.63,0,0,0,.59,4.19s-3.19-3.59-3.19-2-.2,9,0,9.58-1.4-.4-1.4,1,1,5.79,4.79,10.39,16.22,11,27.63,7.7,12.18-17.18,14.58-22.17,10.42-6.79,10.42-6.79,1.2,11.78,6.79,17,16,9.59,18.57,13.59-.79,11.58-1.39,12.58-5.6,5.79-4,7.79,11.59,11.19,15,13.38,8.19,2.4,9.39,2.8,11.78.2,11.78-2.4-2.39-3.79-6.59-4.79-8.19,1.6-9.78.6-8.79-7-9.39-9,.8-9,5-12.58,15-9.19,13.58-24.17-6.39-22.38-6.39-22.38,7-14,16-22,11-19.37,11-19.37l1,2.2.8-6.8,1.19,1.2.4-3.39s2.6-14.78.2-24.57-6.19-13-6.19-13l2.2.59L201,139l.6-.8s-3.39-2.4-5-2.6-6.79-1.6-6.79-1.6,2.79-.59,2.2-.59-6.2-1.4-6.2-1.4l-2.39-.2s-4.6.6-11.79,5.19A151.57,151.57,0,0,1,154.38,146Z"/><path class="cls-13" d="M154.38,146l.2,2.2A65.32,65.32,0,0,0,170,143c8.39-4,14.59-8.19,14.78-10.38s-1-2.6-1-2.6-14.39,9.59-20.18,12.38A49.84,49.84,0,0,1,154.38,146Z"/><path class="cls-2" d="M175.76,95.84s-4.6,4.6-8.59,5.4-15,.6-19.18,9.38-1.4,24.17,1.4,28.37,2,7,3.4,7.79,14.58-4,22.17-8.79,9.78-4.79,10-7.59-2-4.4-3.59-5.79-2.8-2.6-2-3,6-2.2,7.19-3.79-.2-5.4-2-5-9,2.6-9,2.6,8.79-3.8,10.38-9.59a11.84,11.84,0,0,0-2.79-11.78C181.15,91.85,177.35,93.85,175.76,95.84Z"/><g class="cls-19"><path class="cls-15" d="M147.27,133.5a19,19,0,0,0,2.12,5.49c2.8,4.19,2,7,3.4,7.79s12.26-3.17,20-7.48a21.8,21.8,0,0,0-2.8,0s-6,1-8,1-4-3.5-4-3.5,1,5-1,6-4-3-7.5-6.5A18.71,18.71,0,0,1,147.27,133.5Z"/></g><path class="cls-9" d="M175.76,95.84s-4.6,4.6-8.59,5.4-15,.6-19.18,9.38-1.4,24.17,1.4,28.37,2,7,3.4,7.79,14.58-4,22.17-8.79,9.78-4.79,10-7.59-2-4.4-3.59-5.79-2.8-2.6-2-3,6-2.2,7.19-3.79-.2-5.4-2-5-9,2.6-9,2.6,8.79-3.8,10.38-9.59a11.84,11.84,0,0,0-2.79-11.78C181.15,91.85,177.35,93.85,175.76,95.84Z"/><path class="cls-20" d="M166.77,103.43l-1.4.8s-1.2,2.6,0,2S168,106.43,166.77,103.43Z"/><path class="cls-9" d="M151.79,110.62s8.39-1,9,2.2-.6,9.39,1.19,11.39,4.8,5.19,2.4,5.39-8.39-2.4-12-5-3.2.2-3.2.2,2,2,4,2.19"/><path class="cls-9" d="M179.35,121.61a10.47,10.47,0,0,0-3.19,4.17"/><path class="cls-9" d="M175.56,115.42s-3.4,1.6-3,4.59a18.47,18.47,0,0,0,1,4.4"/><path class="cls-13" d="M172.56,120a21.92,21.92,0,0,1,6.59-2.79c3.6-.8,5.4-3,5.4-4.4s-6.6,1.8-6.6,1.8S172.16,116.22,172.56,120Z"/><path class="cls-13" d="M183,99a10.63,10.63,0,0,0,1.62-3.16,14,14,0,0,0-1.42-1.83,3.48,3.48,0,0,0-4-.61,2,2,0,0,0,.64,1C181.75,96.44,181.55,100.84,183,99Z"/><path class="cls-12" d="M202.72,148.38a4.78,4.78,0,0,1,3.6,2.59,19.36,19.36,0,0,1,1.6,4.8l-1-.8,1.19,3.79a61.29,61.29,0,0,0,11.19-8c4.59-4.39,7.39-5.19,9.79-5.19s17.38,1,19.17.8,5.8-2.4,6.4.2-2.2,4.59-5.6,6.59-10,.8-12,.6a17.91,17.91,0,0,0-4.2.2s-8.59,6.19-13.58,13.38-10.59,13.58-14.58,12.59-8.19-6.2-8.79-6.2-5.39.2-7.19-3.39a26.73,26.73,0,0,1-2.2-5.4"/><path class="cls-11" d="M179.15,226.87s-1-3.19-2.59-7.19"/><path class="cls-11" d="M234.2,106.26,230,136.51s-14.25.5-22.75-.75-12.75-4.75-14.75-7-4.5-3.75-6-3.75-6.75-.25-8.25-.75-1,2,1.5,2.5a26.31,26.31,0,0,1,5.75,2.25s-9.25.75-11.5.75-2.25,1.75-2.25,1.75-1.75,1.25-1.25,2.5,5.5,2.5,8.75,3.5,18.5,3,22.25,4.25,12.21,5,20.21,6.25,15.75,4.5,18.25,1.5,8.75-38.5,9.25-45"/><path class="cls-9" d="M186.45,125c-1.5,0-6.75-.25-8.25-.75s-1,2,1.5,2.5a26.31,26.31,0,0,1,5.75,2.25s-9.25.75-11.5.75-2.25,1.75-2.25,1.75-1.75,1.25-1.25,2.5,5.5,2.5,8.75,3.5c1.55.48,5.86,1.19,10.33,1.93a74.75,74.75,0,0,0,1.69-11.91C189.5,126,187.66,125,186.45,125Z"/><path class="cls-9" d="M171.66,131.51a73.39,73.39,0,0,0,8.62,1"/><path class="cls-9" d="M170.45,134s6.7,1.78,9.56,1.37"/><path class="cls-11" d="M250.45,276.26s-.25,5.5,0,10-2.75,10-3.75,13.25,3.25,1.75,4.25,1.25,10.25-10.75,12.5-14.25,4.21-7.73,4.21-9.73-7.5-5.5-7.5-5.5S251.2,273.51,250.45,276.26Z"/><path class="cls-12" d="M267.66,276.78c0-.5-.48-1.11-1.2-1.72a46.9,46.9,0,0,1-6.3,12.22,59.77,59.77,0,0,1-13.46,13.8c.75,1.05,3.44.08,4.21-.3,1-.5,10.25-10.75,12.5-14.25S267.66,278.78,267.66,276.78Z"/><path class="cls-13" d="M275,139s8.5,12.75,6.75,24.5S267,184,256.7,191.76s-32,22-32,22,11.5,11,15,22.5,21.5,35.5,21.5,35.5-4,2.75-6,3.75a30.72,30.72,0,0,1-4.75,1.75s-4.5-7.75-4.75-8.5-14.75-16.5-22.75-29-18.29-27.25-18.29-31,6-11.25,14.25-21,40.5-30.75,50.5-35.5"/><path class="cls-21" d="M225.66,243.59c-6.33-10-17.94-28.65-19.52-32.44-2.18-5.24,13.11-31.9,59.88-56.37"/><path class="cls-21" d="M229.71,250.05,228,247.39"/><path class="cls-21" d="M246.76,165.7s-6.06-4.67-7.87-8.3"/><path class="cls-21" d="M261.66,153.9s7-4.37,13.11-4.81"/><path class="cls-11" d="M207.45,95.78s4.25,7.5,7,10.25,6-1,7.25-6.75,1.75-10-.75-13.75-7.75-1.5-11.5,3S207.45,95.78,207.45,95.78Z"/><path class="cls-11" d="M208.66,94.51s3.75,3,5,6,3.75,3.25,4.75-.75.29-8.87-1.23-13.81S208.66,94.51,208.66,94.51Z"/><ellipse class="cls-22" cx="203.8" cy="70.62" rx="15.55" ry="27.08" transform="translate(-11.07 51.89) rotate(-14.13)"/><path class="cls-9" d="M195.33,80.16s2,2.8,2,4.76c0,.57-.7,2.81-.73,3.23a1,1,0,0,0,.21.62,2,2,0,0,0,2.81.27,1.54,1.54,0,0,0,.19-.17l1.12-1.15"/><path class="cls-9" d="M201.58,91.71s3.36.56,4.48-3.36"/><path class="cls-9" d="M198.32,76.2a4.39,4.39,0,0,1,5.28-.56"/><path class="cls-9" d="M193.46,78.28a1.74,1.74,0,0,0-2.16,1.17,1.56,1.56,0,0,0-.07.64"/><path class="cls-9" d="M200.31,81.05A3,3,0,0,1,203.45,80"/><path class="cls-9" d="M195.66,82.86a1.71,1.71,0,0,0-2,1.2"/><path class="cls-20" d="M288,115.09c-1.67-14.66-9.34-9-10.67-15.33s5.33-13.67-3-20-21-4.67-30.33-6.33a14.36,14.36,0,0,1-2.39-.66C232,61,224,43.09,206.61,42.77,193,42.51,181.47,50,185.28,61c-1.75,3.12-4.32,9.26-1.47,15a31.67,31.67,0,0,0,2.81,4.5c1.76,1,3.82,2.26,5.58,3.36a45.92,45.92,0,0,1-4.83-18.69A17.87,17.87,0,0,0,188.76,67c5.72,6.74,15.2,9.63,22.66,10.86,1.94,1.63,4.89,4.58,5.8,8.15,1.39,5.48,1.06,11.81,10.06,13.14s14-7.66,18.67-3.66a15.2,15.2,0,0,1,3.94,4.79,40.38,40.38,0,0,1,1.49,4.92c.19,1,.37,2.08.57,3.29a25.93,25.93,0,0,0,1.15,4.34c1.71,7.24,4.19,14.63,10.51,16.66C272,132.09,289.66,129.78,288,115.09Z"/><path class="cls-21" d="M228.92,75.53c-5,.7-11.95,1.25-18.31-.1a37.1,37.1,0,0,1-17.33-8.65s5.67-6.67,31.33,2.33"/><path class="cls-21" d="M236,74.43q-1.56.16-3.09.48"/><path class="cls-21" d="M277.22,115.6a4.25,4.25,0,0,1,.73,2.49"/><path class="cls-21" d="M234.89,93.26c8.82-2.18,15-10.75,21.72-7.83,7.67,3.33,2.34,15.66,4.34,22.33,1.17,3.91,6.81,4.15,11.28,5.23"/><path class="cls-21" d="M221.28,78.78s-1.33,15,9.67,15"/><path class="cls-21" d="M236.66,80.43s4,4.33,14,1.66,20.34-2,21.67,8-7,13-2.33,18.67"/><path class="cls-21" d="M189.66,61.43s-1-11.34,17.34-6.67,28.66,15.67,29.66,16"/></g></g></g></svg>