<svg xmlns="http://www.w3.org/2000/svg" viewBox="0 0 270.9 256.1"><defs><style>.cls-1{fill:#039be5;opacity:0.28;}</style></defs><g id="Слой_2" data-name="Слой 2"><g id="Слой_1-2" data-name="Слой 1"><path class="cls-1" d="M220.29,184.59c-10.9-7.88-17.27-16.86-19.5-25.41C192.53,127.26,164.87,105,135,105s-56.58,22.3-64.84,54.24c-2.22,8.52-8.59,17.51-19.5,25.41-13.29,9.62-19.36,24.5-15.86,38.85,4.21,17.25,23.37,32.61,49.59,32.61a58.28,58.28,0,0,0,30.43-8.22,38.5,38.5,0,0,1,20.15-5.49c7.32,0,15.28,1.89,21.21,5.48a58,58,0,0,0,30.3,8.26c26.2,0,45.48-15.28,49.72-32.64C239.65,209.11,233.56,194.21,220.29,184.59Z"/><path class="cls-1" d="M60,105c0-17.35-13.72-45-30-45S0,87.61,0,105a30,30,0,0,0,60,0Z"/><path class="cls-1" d="M240.91,60c-16.27,0-30,27.63-30,45a30,30,0,1,0,60,0C270.9,87.61,257.18,60,240.91,60Z"/><path class="cls-1" d="M151,45a30,30,0,1,0,60,0c0-17.35-13.72-45-30-45S151,27.63,151,45Z"/><path class="cls-1" d="M60,45a30,30,0,0,0,60,0c0-17.35-13.73-45-30-45S60,27.63,60,45Z"/></g></g></svg>