<svg xmlns="http://www.w3.org/2000/svg" viewBox="0 0 511.81 512"><defs><style>.cls-1{fill:#039be5;opacity:0.28;}</style></defs><g id="Слой_2" data-name="Слой 2"><g id="Слой_1-2" data-name="Слой 1"><path class="cls-1" d="M220.29,440.5c-10.9-7.88-17.27-15.86-19.5-24.41-8.26-31.92-34.92-55.22-64.84-55.22s-57.58,23.3-65.84,55.24c-2.22,8.51-8.59,16.51-19.5,24.4-13.29,9.62-19.36,24.5-15.86,38.85C39,496.62,58.12,512,84.34,512a58.37,58.37,0,0,0,30.43-8.21c5.86-3.59,13.83-5.49,21.15-5.49a39,39,0,0,1,20.21,5.47,58,58,0,0,0,30.3,8.26c26.2,0,45.48-15.27,49.72-32.64C239.65,465,233.56,450.12,220.29,440.5Z"/><path class="cls-1" d="M60,360.87c0-17.35-13.72-45-30-45s-30,27.64-30,45a30,30,0,0,0,60,0Z"/><path class="cls-1" d="M240.91,315.88c-16.27,0-30,27.64-30,45a30,30,0,1,0,60,0C270.9,343.52,257.18,315.88,240.91,315.88Z"/><path class="cls-1" d="M151,300.89a30,30,0,1,0,60,0c0-17.35-13.72-45-30-45S151,283.54,151,300.89Z"/><path class="cls-1" d="M90,330.88a30,30,0,0,0,30-30c0-17.35-13.73-45-30-45s-30,27.63-30,45A30,30,0,0,0,90,330.88Z"/><path class="cls-1" d="M461.2,184.59c-10.9-7.88-17.27-16.86-19.5-25.41C433.44,127.26,405.78,105,375.86,105S319.28,127.26,311,159.2c-2.22,8.52-8.59,17.51-19.5,25.41-13.29,9.62-19.36,24.5-15.86,38.85,4.21,17.25,23.38,32.61,49.59,32.61a58.28,58.28,0,0,0,30.43-8.22,38.5,38.5,0,0,1,20.15-5.49c7.32,0,15.28,1.89,21.21,5.48a58,58,0,0,0,30.3,8.26c26.2,0,45.48-15.28,49.72-32.64C480.56,209.11,474.47,194.21,461.2,184.59Z"/><path class="cls-1" d="M300.89,105c0-17.35-13.72-45-30-45s-30,27.63-30,45a30,30,0,0,0,60,0Z"/><path class="cls-1" d="M481.82,60c-16.27,0-30,27.63-30,45a30,30,0,0,0,60,0C511.81,87.61,498.09,60,481.82,60Z"/><path class="cls-1" d="M391.86,45a30,30,0,1,0,60,0c0-17.35-13.72-45-30-45S391.86,27.63,391.86,45Z"/><path class="cls-1" d="M300.89,45a30,30,0,0,0,60,0c0-17.35-13.73-45-30-45S300.89,27.63,300.89,45Z"/></g></g></svg>